<svg width="52" height="10" viewBox="0 0 52 10" fill="none" xmlns="http://www.w3.org/2000/svg">
<g clip-path="url(#clip0_41_111)">
<path d="M8.48052 0.78125C8.558 0.855248 8.63032 0.932687 8.69748 1.01185L8.6837 0.994638C8.61999 0.91892 8.55111 0.848364 8.48052 0.78125ZM3.72459 1.75354L0.673354 5.33812C-0.33741 6.52553 -0.192769 8.31352 0.995352 9.32539C1.50504 9.76077 2.15592 9.99997 2.82747 9.99997C3.65915 9.99997 4.44435 9.63687 4.98331 9.00531L6.41594 7.32401L5.39657 6.12973L3.80379 8.00032C3.55928 8.28598 3.20457 8.45119 2.82747 8.45119C2.61395 8.45119 2.2954 8.39784 1.99923 8.14659C1.73922 7.9246 1.5808 7.61484 1.55325 7.27411C1.5257 6.93337 1.63246 6.60297 1.85459 6.34311L3.79346 4.0664C3.70048 3.86161 3.62988 3.64651 3.58683 3.42623C3.57306 3.35224 3.561 3.27824 3.55067 3.20424C3.54551 3.16982 3.54206 3.13541 3.53862 3.10099C3.53862 3.08894 3.5369 3.07518 3.53518 3.06141C3.53345 3.02699 3.53001 2.99085 3.53001 2.95471C3.52657 2.87383 3.52657 2.79295 3.53001 2.71035C3.53001 2.67077 3.53345 2.62947 3.5369 2.58817C3.53862 2.55547 3.54206 2.52277 3.54551 2.49008C3.54723 2.48664 3.54723 2.48319 3.54723 2.47975C3.5524 2.44189 3.55756 2.40403 3.56273 2.3679C3.59372 2.15623 3.64882 1.95144 3.72459 1.75354ZM5.75472 1.80861C5.7375 1.82066 5.72201 1.83442 5.70651 1.84819C5.72373 1.83442 5.73923 1.82066 5.75472 1.80861ZM5.70651 1.84819C5.70651 1.84819 5.70134 1.85163 5.69962 1.85335C5.69101 1.86024 5.6824 1.86712 5.67552 1.87573C5.68585 1.8654 5.69618 1.8568 5.70651 1.84819ZM7.47664 1.97037C7.48697 1.9807 7.4973 1.99275 7.50763 2.00479L7.50419 1.99963C7.49558 1.9893 7.48697 1.9807 7.47664 1.97037ZM5.58081 1.97037C5.57048 1.9807 5.56187 1.9893 5.55326 1.99963L5.54982 2.00479C5.56015 1.99275 5.57048 1.98242 5.58081 1.97037ZM7.50763 2.00479L7.53346 2.03577C7.52485 2.02544 7.51624 2.01512 7.50763 2.00479ZM5.54809 2.00479C5.53948 2.01512 5.53088 2.02544 5.52227 2.03577L5.54809 2.00479ZM9.35353 2.71035C9.35353 2.71895 9.35353 2.72928 9.35353 2.73788C9.35353 2.72756 9.35353 2.71895 9.35353 2.71035ZM9.35525 2.73788C9.35869 2.81532 9.35525 2.89276 9.35525 2.9702C9.35869 2.92374 9.36041 2.87555 9.36041 2.82909C9.36041 2.79811 9.35869 2.76886 9.35697 2.73788H9.35525Z" fill="#FF4E9F"/>
<path d="M6.52777 0C6.48645 0 6.4434 0.00172087 6.40207 0.00344175C6.36247 0.00516262 6.32287 0.0068835 6.28154 0.0120461C6.28154 0.0120461 6.27982 0.0120461 6.2781 0.0120461C6.27637 0.0120461 6.27293 0.0120461 6.27121 0.0120461C6.24021 0.013767 6.2075 0.0189296 6.17478 0.0240922C6.15756 0.0240922 6.14034 0.0258131 6.12312 0.0309757C6.09557 0.0309757 6.06974 0.0378592 6.04219 0.0430219C5.91477 0.0636723 5.78907 0.0946481 5.66682 0.134228C5.63238 0.144553 5.59966 0.1566 5.56522 0.168646C5.55661 0.172087 5.548 0.175529 5.53939 0.178971C5.5084 0.189296 5.47568 0.203063 5.44469 0.215109C5.39131 0.237481 5.33965 0.261573 5.28799 0.285665C5.22428 0.316641 5.16402 0.349337 5.10375 0.385476C5.06759 0.406126 5.03143 0.426777 4.99699 0.450869C4.96255 0.47324 4.92811 0.495612 4.89368 0.519704C4.85924 0.543796 4.82652 0.569609 4.79208 0.595422C4.75937 0.621236 4.72837 0.647049 4.69566 0.674583C4.65261 0.710721 4.61128 0.74858 4.56996 0.78816L4.48558 0.872483C4.03444 1.34056 3.76238 1.94459 3.709 2.60196C3.67112 3.05971 3.74516 3.50886 3.91735 3.92187C3.94146 3.97866 3.96901 4.03717 3.99656 4.09224C4.09815 4.2953 4.22385 4.4846 4.37366 4.66185L5.3982 5.86302L5.51012 5.99553L6.52777 7.19153L6.54155 7.20702L6.64142 7.32404L8.07405 9.00533C8.61129 9.6369 9.3982 10 10.2299 10C10.8997 10 11.5506 9.7608 12.062 9.32542C13.2501 8.31354 13.3948 6.52556 12.3823 5.33815L9.32933 1.75357C9.61344 2.49527 9.59622 3.32989 9.2639 4.06643L11.2028 6.34314C11.4249 6.60299 11.5317 6.9334 11.5041 7.27414C11.4766 7.61487 11.3181 7.92463 11.0581 8.14662C10.762 8.39787 10.4434 8.45121 10.2299 8.45121C9.85279 8.45121 9.49635 8.28601 9.25356 8.00034L7.65907 6.12803L7.56092 6.01101L7.54715 5.99553L6.52949 4.79952L6.41585 4.66873L5.55489 3.65686C5.33276 3.39701 5.22601 3.0666 5.25356 2.72586C5.257 2.68112 5.26217 2.6381 5.2725 2.59508C5.30866 2.38857 5.39475 2.19756 5.5239 2.03579L5.55317 1.99966C5.56178 1.98933 5.57039 1.98073 5.58072 1.9704C5.5945 1.95319 5.60999 1.93598 5.62721 1.9205C5.64271 1.90501 5.65821 1.88952 5.67543 1.87575C5.68231 1.86715 5.69092 1.86027 5.69953 1.85338C5.71847 1.83789 5.73741 1.82241 5.75463 1.80864C5.78046 1.78971 5.80457 1.7725 5.8304 1.75701C5.85278 1.74152 5.87517 1.72776 5.89755 1.71571C5.9251 1.6985 5.95265 1.68474 5.9802 1.67097C5.99742 1.66236 6.01636 1.65376 6.03531 1.64688C6.05252 1.63999 6.07147 1.63139 6.09041 1.62623C6.11279 1.61762 6.13518 1.60902 6.15756 1.60385C6.18856 1.59353 6.21955 1.58665 6.24882 1.57976C6.27293 1.5746 6.29704 1.56944 6.31942 1.566C6.33492 1.56255 6.34869 1.56083 6.36247 1.55911C6.39002 1.55567 6.41585 1.55395 6.44168 1.55223C6.47095 1.55051 6.4985 1.54879 6.52433 1.54879H6.53122C6.55705 1.54879 6.5846 1.55051 6.61387 1.55223C6.6397 1.55395 6.66553 1.55567 6.69308 1.55911C6.70857 1.55911 6.72235 1.56427 6.73612 1.566C6.7895 1.5746 6.84461 1.58665 6.90315 1.60558C6.92554 1.61074 6.9462 1.61762 6.96686 1.62623C6.98408 1.63139 7.00302 1.63999 7.02196 1.64688C7.0409 1.65548 7.05984 1.66409 7.07706 1.67097C7.1115 1.68818 7.1425 1.70539 7.17521 1.72432C7.18382 1.72948 7.19243 1.73464 7.20104 1.7398C7.23548 1.76045 7.2682 1.78283 7.30091 1.80864H7.30263C7.33191 1.83101 7.35946 1.85338 7.38529 1.87919C7.40078 1.89124 7.41628 1.90673 7.43006 1.9205C7.44728 1.93598 7.46277 1.95319 7.47655 1.9704C7.48688 1.98073 7.49549 1.98933 7.5041 1.99966L7.53337 2.03579C7.66251 2.19756 7.74861 2.38857 7.78477 2.59508C7.7951 2.6381 7.80027 2.68112 7.80371 2.72586C7.83126 3.0666 7.7245 3.39701 7.50238 3.65686L6.64142 4.66873L7.65907 5.86302L8.68189 4.66185C8.83342 4.48288 8.95912 4.29186 9.05899 4.09052C9.08826 4.03373 9.11409 3.97694 9.13992 3.92015C9.25184 3.6517 9.319 3.37291 9.34483 3.09069C9.34827 3.05111 9.35171 3.00981 9.35344 2.97023C9.35688 2.88419 9.3586 2.79642 9.35344 2.71038V2.70693C9.35344 2.65875 9.34827 2.61057 9.3431 2.56238C9.3431 2.53485 9.33794 2.50731 9.33449 2.47978C9.32416 2.39546 9.30694 2.31113 9.28972 2.22681C9.27767 2.17174 9.2639 2.11668 9.25012 2.06333C9.14336 1.68474 8.95912 1.32507 8.69739 1.01187C8.63023 0.932714 8.55791 0.855274 8.48042 0.781277C8.37539 0.679745 8.26174 0.588539 8.14293 0.505937C8.11538 0.487007 8.08783 0.468078 8.06028 0.450869C8.02584 0.426777 7.98968 0.406126 7.95352 0.385476C7.8812 0.342454 7.80888 0.302874 7.73311 0.268456C7.69523 0.251248 7.65735 0.234039 7.61947 0.218551C7.58158 0.203063 7.5437 0.187575 7.5041 0.173808C7.46622 0.15832 7.42661 0.146274 7.38701 0.134228C7.2682 0.0946481 7.14594 0.0653932 7.02024 0.0447427C6.98925 0.0378592 6.95825 0.0326966 6.92554 0.0292549C6.91176 0.0258131 6.89971 0.0240922 6.88421 0.0240922C6.85149 0.0189296 6.81705 0.013767 6.78262 0.0120461C6.78262 0.0120461 6.78089 0.0120461 6.77917 0.0120461C6.77917 0.0120461 6.77745 0.0120461 6.77573 0.0120461C6.73612 0.0068835 6.69652 0.00516262 6.65519 0.00344175C6.61387 0.00172087 6.57082 0 6.52777 0Z" fill="#FF4E9F"/>
</g>
<path d="M16.7695 4.13693C16.7695 2.76711 17.811 1.90735 19.4838 1.90735C21.2276 1.90735 22.2692 2.84335 22.2692 4.42352V7.86255H20.9488V6.34286C20.6779 7.38403 19.8205 8.0203 18.6422 8.0203C17.4165 8.0203 16.5985 7.32882 16.5985 6.29027C16.5985 5.21229 17.4796 4.55761 18.9341 4.55761H20.9488V4.42352C20.9488 3.54799 20.3833 3.009 19.4575 3.009C18.5159 3.009 18.0872 3.44808 18.0872 4.13693H16.7695ZM20.9488 5.4831H19.0077C18.2923 5.4831 17.9136 5.73025 17.9136 6.20088C17.9136 6.69517 18.3371 6.97124 19.0945 6.97124C20.1729 6.97124 20.9488 6.41647 20.9488 5.64874V5.4831Z" fill="#FF4E9F"/>
<path d="M24.3233 5.10186V7.86255H23.003V2.0651H24.3233V3.99496C24.5627 2.79866 25.236 2.0651 26.4143 2.0651H26.7194V3.31136H26.2854C24.7915 3.31136 24.3233 3.88453 24.3233 5.10186Z" fill="#FF4E9F"/>
<path d="M28.3531 4.96251C28.3531 6.14566 28.9422 6.85293 29.918 6.85293C30.7571 6.85293 31.1989 6.32182 31.3304 5.62508H32.6482C32.4719 7.00016 31.4698 8.0203 29.9154 8.0203C28.2005 8.0203 27.0275 6.80297 27.0275 4.96251C27.0275 3.12205 28.1979 1.90735 29.9154 1.90735C31.4725 1.90735 32.4719 2.92749 32.6482 4.30258H31.3304C31.2016 3.60583 30.7597 3.07473 29.918 3.07473C28.9422 3.07473 28.3531 3.77936 28.3531 4.96251Z" fill="#FF4E9F"/>
<path d="M33.2183 4.13693C33.2183 2.76711 34.2599 1.90735 35.9327 1.90735C37.6765 1.90735 38.718 2.84335 38.718 4.42352V7.86255H37.3977V6.34286C37.1268 7.38403 36.2693 8.0203 35.091 8.0203C33.8654 8.0203 33.0474 7.32882 33.0474 6.29027C33.0474 5.21229 33.9285 4.55761 35.383 4.55761H37.3977V4.42352C37.3977 3.54799 36.8322 3.009 35.9064 3.009C34.9648 3.009 34.536 3.44808 34.536 4.13693H33.2183ZM37.3977 5.4831H35.4566C34.7412 5.4831 34.3625 5.73025 34.3625 6.20088C34.3625 6.69517 34.7859 6.97124 35.5434 6.97124C36.6218 6.97124 37.3977 6.41647 37.3977 5.64874V5.4831Z" fill="#FF4E9F"/>
<path d="M40.7722 4.77321V7.86255H39.4518V2.0651H40.7722V3.77147C41.0352 2.58832 41.7874 1.90735 42.8684 1.90735C44.152 1.90735 44.8858 2.8749 44.8858 4.55761V7.86255H43.5654V4.68907C43.5654 3.61372 43.1341 3.0721 42.2582 3.0721C41.3219 3.0721 40.7722 3.68734 40.7722 4.77321Z" fill="#FF4E9F"/>
<path d="M45.6295 4.13693C45.6295 2.76711 46.671 1.90735 48.3438 1.90735C50.0876 1.90735 51.1292 2.84335 51.1292 4.42352V7.86255H49.8088V6.34286C49.5379 7.38403 48.6805 8.0203 47.5021 8.0203C46.2765 8.0203 45.4585 7.32882 45.4585 6.29027C45.4585 5.21229 46.3396 4.55761 47.7941 4.55761H49.8088V4.42352C49.8088 3.54799 49.2433 3.009 48.3175 3.009C47.3759 3.009 46.9472 3.44808 46.9472 4.13693H45.6295ZM49.8088 5.4831H47.8677C47.1523 5.4831 46.7736 5.73025 46.7736 6.20088C46.7736 6.69517 47.197 6.97124 47.9545 6.97124C49.0329 6.97124 49.8088 6.41647 49.8088 5.64874V5.4831Z" fill="#FF4E9F"/>
<defs>
<clipPath id="clip0_41_111">
<rect width="13.0556" height="10" fill="white"/>
</clipPath>
</defs>
</svg>
