<svg width="24" height="24" viewBox="0 0 24 24" fill="none" xmlns="http://www.w3.org/2000/svg">
<path d="M5.99963 20C5.44735 20 4.99963 20.4477 4.99963 21C4.99963 21.5523 5.44735 22 5.99963 22V20ZM17.9996 22C18.5519 22 18.9996 21.5523 18.9996 21C18.9996 20.4477 18.5519 20 17.9996 20V22ZM12.9996 3C12.9996 2.44772 12.5519 2 11.9996 2C11.4473 2 10.9996 2.44772 10.9996 3L12.9996 3ZM11.9996 17L11.2925 17.7071C11.4801 17.8946 11.7344 18 11.9996 18C12.2649 18 12.5192 17.8946 12.7067 17.7071L11.9996 17ZM17.7067 12.7071C18.0973 12.3166 18.0973 11.6834 17.7067 11.2929C17.3162 10.9024 16.6831 10.9024 16.2925 11.2929L17.7067 12.7071ZM7.70674 11.2929C7.31622 10.9024 6.68305 10.9024 6.29253 11.2929C5.902 11.6834 5.902 12.3166 6.29253 12.7071L7.70674 11.2929ZM5.99963 22H17.9996V20H5.99963V22ZM10.9996 3L10.9996 17H12.9996L12.9996 3L10.9996 3ZM16.2925 11.2929L11.2925 16.2929L12.7067 17.7071L17.7067 12.7071L16.2925 11.2929ZM12.7067 16.2929L7.70674 11.2929L6.29253 12.7071L11.2925 17.7071L12.7067 16.2929Z" fill="white"/>
</svg>
