<svg width="24" height="24" viewBox="0 0 24 24" fill="none" xmlns="http://www.w3.org/2000/svg">
<path d="M10.0002 6C10.5525 6 11.0002 5.55228 11.0002 5C11.0002 4.44772 10.5525 4 10.0002 4V6ZM20 14C20 13.4477 19.5523 13 19 13C18.4477 13 18 13.4477 18 14H20ZM17.9078 18.782L17.4538 17.891L17.9078 18.782ZM18.7822 17.908L17.8912 17.454L18.7822 17.908ZM5.21799 17.908L4.32698 18.362H4.32698L5.21799 17.908ZM6.0918 18.782L6.54579 17.891H6.54579L6.0918 18.782ZM6.0918 5.21799L6.54579 6.10899L6.0918 5.21799ZM5.21799 6.09204L6.10899 6.54603L5.21799 6.09204ZM19 9C19 9.55228 19.4477 10 20 10C20.5523 10 21 9.55228 21 9H19ZM20 4H21C21 3.44772 20.5523 3 20 3V4ZM15 3C14.4477 3 14 3.44772 14 4C14 4.55228 14.4477 5 15 5V3ZM12.2929 10.2929C11.9024 10.6834 11.9024 11.3166 12.2929 11.7071C12.6834 12.0976 13.3166 12.0976 13.7071 11.7071L12.2929 10.2929ZM10.0002 4H8.2002V6H10.0002V4ZM4 8.19995V15.8H6V8.19995H4ZM8.2002 20H15.8002V18H8.2002V20ZM20 15.8V14H18V15.8H20ZM15.8002 20C16.3438 20 16.8115 20.0008 17.1951 19.9694C17.5904 19.9371 17.9835 19.8657 18.3618 19.673L17.4538 17.891C17.4043 17.9162 17.3036 17.9539 17.0321 17.9761C16.7489 17.9992 16.3767 18 15.8002 18V20ZM18 15.8C18 16.3767 17.9993 16.7489 17.9762 17.0323C17.954 17.3041 17.9164 17.4047 17.8912 17.454L19.6732 18.362C19.8661 17.9835 19.9373 17.5902 19.9696 17.1949C20.0008 16.8113 20 16.3435 20 15.8H18ZM18.3618 19.673C18.9257 19.3856 19.3854 18.927 19.6732 18.362L17.8912 17.454C17.7956 17.6417 17.6425 17.7948 17.4538 17.891L18.3618 19.673ZM4 15.8C4 16.3435 3.99922 16.8113 4.03057 17.195C4.06287 17.5904 4.13418 17.9836 4.32698 18.362L6.10899 17.454C6.08381 17.4046 6.04613 17.3039 6.02393 17.0322C6.00078 16.7488 6 16.3765 6 15.8H4ZM8.2002 18C7.62367 18 7.25127 17.9992 6.96782 17.9761C6.69598 17.9538 6.59519 17.9161 6.54579 17.891L5.63781 19.673C6.01623 19.8658 6.40959 19.9371 6.80496 19.9694C7.18873 20.0008 7.65662 20 8.2002 20V18ZM4.32698 18.362C4.61452 18.9264 5.07317 19.3853 5.63781 19.673L6.54579 17.891C6.35778 17.7952 6.20494 17.6424 6.10899 17.454L4.32698 18.362ZM8.2002 4C7.65663 4 7.18874 3.99922 6.80498 4.03057C6.40962 4.06286 6.01624 4.13416 5.63781 4.32698L6.54579 6.10899C6.59517 6.08383 6.69595 6.04613 6.9678 6.02393C7.25126 6.00078 7.62365 6 8.2002 6V4ZM6 8.19995C6 7.6234 6.00078 7.25114 6.02393 6.96783C6.04612 6.6962 6.0838 6.59549 6.10899 6.54603L4.32698 5.63805C4.13419 6.01642 4.06287 6.40961 4.03057 6.80495C3.99922 7.18861 4 7.6564 4 8.19995H6ZM5.63781 4.32698C5.07306 4.61473 4.61447 5.07382 4.32698 5.63805L6.10899 6.54603C6.205 6.35761 6.35788 6.20474 6.54579 6.10899L5.63781 4.32698ZM21 9V4H19V9H21ZM20 3H15V5H20V3ZM13.7071 11.7071L20.7071 4.70711L19.2929 3.29289L12.2929 10.2929L13.7071 11.7071Z" fill="#F7F7F7"/>
</svg>
