<svg width="85" height="28" viewBox="0 0 85 28" fill="none" xmlns="http://www.w3.org/2000/svg">
<path d="M38.472 5.968V5.28H39.776C40.0533 5.28 40.2827 5.22667 40.464 5.12C40.6453 5.008 40.7813 4.85867 40.872 4.672C40.968 4.48533 41.016 4.27733 41.016 4.048C41.016 3.81333 40.968 3.60267 40.872 3.416C40.7813 3.22933 40.6453 3.08267 40.464 2.976C40.2827 2.86933 40.0533 2.816 39.776 2.816H38.472V2.128H39.632C40.112 2.128 40.512 2.20533 40.832 2.36C41.1573 2.50933 41.4027 2.72267 41.568 3C41.7333 3.27733 41.816 3.60533 41.816 3.984V4.112C41.816 4.48533 41.7333 4.81333 41.568 5.096C41.4027 5.37333 41.1573 5.58933 40.832 5.744C40.512 5.89333 40.112 5.968 39.632 5.968H38.472ZM37.848 8V2.128H38.632V8H37.848ZM44.7431 8.144C44.3697 8.144 44.0417 8.08 43.7591 7.952C43.4764 7.824 43.2364 7.656 43.0391 7.448C42.8471 7.23467 42.7004 6.99733 42.5991 6.736C42.5031 6.47467 42.4551 6.208 42.4551 5.936V5.792C42.4551 5.52 42.5057 5.25333 42.6071 4.992C42.7084 4.72533 42.8577 4.488 43.0551 4.28C43.2524 4.06667 43.4924 3.89867 43.7751 3.776C44.0577 3.648 44.3804 3.584 44.7431 3.584C45.1057 3.584 45.4284 3.648 45.7111 3.776C45.9937 3.89867 46.2337 4.06667 46.4311 4.28C46.6284 4.488 46.7777 4.72533 46.8791 4.992C46.9804 5.25333 47.0311 5.52 47.0311 5.792V5.936C47.0311 6.208 46.9804 6.47467 46.8791 6.736C46.7831 6.99733 46.6364 7.23467 46.4391 7.448C46.2471 7.656 46.0097 7.824 45.7271 7.952C45.4444 8.08 45.1164 8.144 44.7431 8.144ZM44.7431 7.456C45.0631 7.456 45.3351 7.38667 45.5591 7.248C45.7884 7.104 45.9617 6.912 46.0791 6.672C46.2017 6.432 46.2631 6.16267 46.2631 5.864C46.2631 5.56 46.2017 5.288 46.0791 5.048C45.9564 4.808 45.7804 4.61867 45.5511 4.48C45.3271 4.34133 45.0577 4.272 44.7431 4.272C44.4337 4.272 44.1644 4.34133 43.9351 4.48C43.7057 4.61867 43.5297 4.808 43.4071 5.048C43.2844 5.288 43.2231 5.56 43.2231 5.864C43.2231 6.16267 43.2817 6.432 43.3991 6.672C43.5217 6.912 43.6951 7.104 43.9191 7.248C44.1484 7.38667 44.4231 7.456 44.7431 7.456ZM49.3512 8L50.2152 3.872H51.2552L52.2632 8H51.6072L50.5992 3.888H50.8552L49.9832 8H49.3512ZM48.9592 8V7.392H49.8472V8H48.9592ZM48.7832 8L47.5752 3.728H48.3112L49.4872 8H48.7832ZM51.7672 8V7.392H52.6552V8H51.7672ZM52.1272 8L53.1512 3.728H53.8472L52.7992 8H52.1272ZM56.6223 8.144C56.249 8.144 55.9263 8.08 55.6543 7.952C55.3823 7.824 55.161 7.656 54.9903 7.448C54.8196 7.23467 54.6916 6.99733 54.6063 6.736C54.5263 6.47467 54.4863 6.208 54.4863 5.936V5.792C54.4863 5.51467 54.5263 5.24533 54.6063 4.984C54.6916 4.72267 54.8196 4.488 54.9903 4.28C55.161 4.06667 55.377 3.89867 55.6383 3.776C55.905 3.648 56.217 3.584 56.5743 3.584C57.0383 3.584 57.4196 3.68533 57.7183 3.888C58.0223 4.08533 58.2463 4.34133 58.3903 4.656C58.5396 4.97067 58.6143 5.30667 58.6143 5.664V6.008H54.8223V5.432H58.0543L57.8783 5.744C57.8783 5.44 57.8303 5.17867 57.7343 4.96C57.6383 4.736 57.4943 4.56267 57.3023 4.44C57.1103 4.31733 56.8676 4.256 56.5743 4.256C56.2703 4.256 56.017 4.32533 55.8143 4.464C55.617 4.60267 55.4676 4.792 55.3663 5.032C55.2703 5.272 55.2223 5.54933 55.2223 5.864C55.2223 6.168 55.2703 6.44267 55.3663 6.688C55.4676 6.928 55.6223 7.12 55.8303 7.264C56.0383 7.40267 56.3023 7.472 56.6223 7.472C56.9583 7.472 57.2303 7.39733 57.4383 7.248C57.6516 7.09867 57.7796 6.92533 57.8223 6.728H58.5423C58.4836 7.02133 58.3663 7.27467 58.1903 7.488C58.0143 7.70133 57.793 7.864 57.5263 7.976C57.2596 8.088 56.9583 8.144 56.6223 8.144ZM59.7048 8V3.728H60.3128V5.488H60.2808C60.2808 4.864 60.4168 4.408 60.6888 4.12C60.9661 3.82667 61.3794 3.68 61.9288 3.68H62.0728V4.368H61.8008C61.3741 4.368 61.0461 4.48267 60.8168 4.712C60.5874 4.936 60.4728 5.26133 60.4728 5.688V8H59.7048ZM64.7551 8.144C64.3818 8.144 64.0591 8.08 63.7871 7.952C63.5151 7.824 63.2938 7.656 63.1231 7.448C62.9525 7.23467 62.8245 6.99733 62.7391 6.736C62.6591 6.47467 62.6191 6.208 62.6191 5.936V5.792C62.6191 5.51467 62.6591 5.24533 62.7391 4.984C62.8245 4.72267 62.9525 4.488 63.1231 4.28C63.2938 4.06667 63.5098 3.89867 63.7711 3.776C64.0378 3.648 64.3498 3.584 64.7071 3.584C65.1711 3.584 65.5525 3.68533 65.8511 3.888C66.1551 4.08533 66.3791 4.34133 66.5231 4.656C66.6725 4.97067 66.7471 5.30667 66.7471 5.664V6.008H62.9551V5.432H66.1871L66.0111 5.744C66.0111 5.44 65.9631 5.17867 65.8671 4.96C65.7711 4.736 65.6271 4.56267 65.4351 4.44C65.2431 4.31733 65.0005 4.256 64.7071 4.256C64.4031 4.256 64.1498 4.32533 63.9471 4.464C63.7498 4.60267 63.6005 4.792 63.4991 5.032C63.4031 5.272 63.3551 5.54933 63.3551 5.864C63.3551 6.168 63.4031 6.44267 63.4991 6.688C63.6005 6.928 63.7551 7.12 63.9631 7.264C64.1711 7.40267 64.4351 7.472 64.7551 7.472C65.0911 7.472 65.3631 7.39733 65.5711 7.248C65.7845 7.09867 65.9125 6.92533 65.9551 6.728H66.6751C66.6165 7.02133 66.4991 7.27467 66.3231 7.488C66.1471 7.70133 65.9258 7.864 65.6591 7.976C65.3925 8.088 65.0911 8.144 64.7551 8.144ZM69.6216 8.144C69.3176 8.144 69.0376 8.088 68.7816 7.976C68.5256 7.864 68.3016 7.70667 68.1096 7.504C67.9229 7.30133 67.7762 7.06667 67.6696 6.8C67.5682 6.53333 67.5176 6.24533 67.5176 5.936V5.792C67.5176 5.488 67.5682 5.20267 67.6696 4.936C67.7709 4.66933 67.9122 4.43467 68.0936 4.232C68.2802 4.02933 68.4989 3.872 68.7496 3.76C69.0056 3.64267 69.2882 3.584 69.5976 3.584C69.9229 3.584 70.2189 3.65333 70.4856 3.792C70.7522 3.92533 70.9709 4.136 71.1416 4.424C71.3122 4.712 71.4082 5.08533 71.4296 5.544L71.1096 5.032V2.16H71.8776V8H71.2696V6.104H71.4936C71.4722 6.58933 71.3709 6.984 71.1896 7.288C71.0082 7.58667 70.7789 7.80533 70.5016 7.944C70.2296 8.07733 69.9362 8.144 69.6216 8.144ZM69.7256 7.472C69.9869 7.472 70.2242 7.41333 70.4376 7.296C70.6509 7.17867 70.8216 7.01067 70.9496 6.792C71.0776 6.568 71.1416 6.30667 71.1416 6.008V5.64C71.1416 5.34667 71.0749 5.09867 70.9416 4.896C70.8136 4.688 70.6402 4.53067 70.4216 4.424C70.2082 4.312 69.9736 4.256 69.7176 4.256C69.4349 4.256 69.1842 4.32267 68.9656 4.456C68.7522 4.58933 68.5842 4.776 68.4616 5.016C68.3442 5.256 68.2856 5.53867 68.2856 5.864C68.2856 6.18933 68.3469 6.47467 68.4696 6.72C68.5922 6.96 68.7629 7.14667 68.9816 7.28C69.2002 7.408 69.4482 7.472 69.7256 7.472ZM75.9095 8.032V7.344H77.5415C77.8562 7.344 78.0988 7.256 78.2695 7.08C78.4455 6.89867 78.5335 6.65867 78.5335 6.36C78.5335 6.056 78.4482 5.81867 78.2775 5.648C78.1068 5.472 77.8615 5.384 77.5415 5.384H75.9095V4.872H77.4295C77.8028 4.872 78.1308 4.91733 78.4135 5.008C78.7015 5.09867 78.9255 5.25067 79.0855 5.464C79.2508 5.672 79.3335 5.95733 79.3335 6.32V6.432C79.3335 6.77333 79.2642 7.064 79.1255 7.304C78.9868 7.53867 78.7762 7.72 78.4935 7.848C78.2108 7.97067 77.8562 8.032 77.4295 8.032H75.9095ZM75.2855 8.032V2.128H76.0695V8.032H75.2855ZM75.9095 5.24V4.728H77.3255C77.6562 4.728 77.8988 4.64 78.0535 4.464C78.2135 4.28267 78.2935 4.05333 78.2935 3.776C78.2935 3.49333 78.2135 3.264 78.0535 3.088C77.8988 2.90667 77.6562 2.816 77.3255 2.816H75.9095V2.128H77.1895C77.8295 2.128 78.3068 2.264 78.6215 2.536C78.9362 2.80267 79.0935 3.18933 79.0935 3.696V3.808C79.0935 4.16533 79.0135 4.45067 78.8535 4.664C78.6935 4.872 78.4695 5.02133 78.1815 5.112C77.8988 5.19733 77.5682 5.24 77.1895 5.24H75.9095ZM80.323 9.664V8.976H80.939C81.1203 8.976 81.2723 8.952 81.395 8.904C81.523 8.86133 81.627 8.78667 81.707 8.68C81.7923 8.57333 81.8617 8.432 81.915 8.256L83.259 3.728H84.011L82.587 8.456C82.5017 8.73867 82.3817 8.968 82.227 9.144C82.0723 9.32533 81.883 9.456 81.659 9.536C81.4403 9.62133 81.1843 9.664 80.891 9.664H80.323ZM81.627 7.904V7.264H82.555V7.904H81.627ZM81.547 7.904L80.019 3.728H80.803L82.267 7.904H81.547Z" fill="#8D8D8D"/>
<path fill-rule="evenodd" clip-rule="evenodd" d="M12.8177 25.3838C13.1429 25.8026 13.5493 26.1515 14.0128 26.4098C14.4763 26.668 14.9872 26.8302 15.515 26.8867C16.0428 26.9431 16.5766 26.8926 17.0844 26.7383C17.5921 26.5839 18.0635 26.3288 18.4701 25.9883C18.8767 25.6477 19.2103 25.2288 19.4508 24.7565C19.6913 24.2842 19.8338 23.7683 19.8697 23.2398C19.9057 22.7112 19.8344 22.1808 19.66 21.6804C19.4857 21.18 19.2119 20.7199 18.8552 20.3277L13.1092 13.4931C12.4399 12.6652 11.4685 12.1364 10.4086 12.0229C9.34875 11.9094 8.28711 12.2206 7.45702 12.888C6.65413 13.5879 6.16254 14.5774 6.0903 15.6389C6.01807 16.7004 6.37111 17.7471 7.07182 18.5489L12.8177 25.3838ZM17.0336 24.2797C16.6563 24.5831 16.1737 24.7246 15.692 24.673C15.2102 24.6215 14.7687 24.3811 14.4644 24.0048L8.71852 17.1717C8.40006 16.8072 8.2396 16.3315 8.27239 15.849C8.30519 15.3666 8.52856 14.9168 8.89342 14.5986C9.27075 14.2952 9.75335 14.1537 10.2352 14.2053C10.717 14.2568 11.1586 14.4972 11.4629 14.8735L17.2088 21.7052C17.3668 21.8857 17.4875 22.0955 17.5642 22.3225C17.6409 22.5496 17.6721 22.7895 17.6558 23.0286C17.6396 23.2677 17.5763 23.5012 17.4696 23.7159C17.3629 23.9306 17.2148 24.1221 17.0339 24.2797H17.0336Z" fill="url(#paint0_linear_4149_1784)"/>
<path fill-rule="evenodd" clip-rule="evenodd" d="M7.02852 25.3838C6.35912 26.2118 5.38768 26.7407 4.32773 26.8542C3.26777 26.9676 2.20605 26.6564 1.37594 25.9889C0.572993 25.2889 0.0813986 24.2994 0.00923149 23.2378C-0.0629356 22.1762 0.290231 21.1294 0.991093 20.3277L6.73702 13.4931C7.40641 12.6652 8.37778 12.1364 9.43764 12.0229C10.4975 11.9094 11.5591 12.2206 12.3892 12.888C13.1921 13.5879 13.6837 14.5774 13.756 15.6389C13.8282 16.7004 13.4752 17.7471 12.7744 18.5489L7.02852 25.3838ZM2.81269 24.2797C3.18997 24.5831 3.67251 24.7246 4.15427 24.673C4.63602 24.6215 5.07755 24.3811 5.38182 24.0048L11.127 17.1717C11.4455 16.8072 11.6059 16.3315 11.5732 15.849C11.5404 15.3666 11.317 14.9168 10.9521 14.5986C10.5748 14.2953 10.0923 14.1539 9.61057 14.2054C9.12885 14.257 8.68732 14.4973 8.38301 14.8735L2.63744 21.7052C2.47951 21.8857 2.35876 22.0955 2.2821 22.3226C2.20543 22.5497 2.17435 22.7896 2.19062 23.0287C2.2069 23.2678 2.27021 23.5013 2.37695 23.716C2.48369 23.9306 2.63176 24.1222 2.81269 24.2797Z" fill="url(#paint1_linear_4149_1784)"/>
<path d="M26.7825 24.256C26.0305 24.256 25.3451 24.0693 24.7265 23.696C24.1131 23.3173 23.6251 22.8 23.2625 22.144C22.9051 21.4827 22.7265 20.7307 22.7265 19.888C22.7265 19.0667 22.8998 18.3307 23.2465 17.68C23.5931 17.024 24.0705 16.5067 24.6785 16.128C25.2918 15.744 25.9931 15.552 26.7825 15.552C27.3638 15.552 27.9051 15.664 28.4065 15.888C28.9131 16.1067 29.3265 16.4133 29.6465 16.808V15.808H32.1025V24H29.6465V22.92C29.2731 23.352 28.8438 23.6827 28.3585 23.912C27.8731 24.1413 27.3478 24.256 26.7825 24.256ZM27.5105 22.168C27.9371 22.168 28.3158 22.072 28.6465 21.88C28.9771 21.6827 29.2358 21.4133 29.4225 21.072C29.6091 20.7307 29.7025 20.3413 29.7025 19.904C29.7025 19.4613 29.6065 19.072 29.4145 18.736C29.2278 18.3947 28.9691 18.128 28.6385 17.936C28.3131 17.7387 27.9371 17.64 27.5105 17.64C27.0891 17.64 26.7131 17.7387 26.3825 17.936C26.0518 18.128 25.7905 18.3947 25.5985 18.736C25.4065 19.0773 25.3105 19.4667 25.3105 19.904C25.3105 20.3413 25.4038 20.7307 25.5905 21.072C25.7825 21.4133 26.0438 21.6827 26.3745 21.88C26.7051 22.072 27.0838 22.168 27.5105 22.168ZM34.9915 24V15.808H37.4475V16.984C37.7515 16.5253 38.1221 16.1733 38.5595 15.928C39.0021 15.6773 39.4768 15.552 39.9835 15.552C40.2715 15.552 40.5701 15.5947 40.8795 15.68C41.1888 15.7653 41.4475 15.8747 41.6555 16.008L40.6315 18.08C40.4501 17.9573 40.2368 17.8613 39.9915 17.792C39.7515 17.7173 39.5275 17.68 39.3195 17.68C38.9995 17.68 38.6955 17.7627 38.4075 17.928C38.1195 18.0933 37.8875 18.3093 37.7115 18.576C37.5355 18.8373 37.4475 19.12 37.4475 19.424V24H34.9915ZM46.761 24.256C46.137 24.256 45.5476 24.144 44.993 23.92C44.4436 23.696 43.9583 23.3867 43.537 22.992C43.1156 22.592 42.785 22.1307 42.545 21.608C42.305 21.08 42.185 20.5147 42.185 19.912C42.185 19.3307 42.297 18.7787 42.521 18.256C42.7503 17.7333 43.0703 17.2693 43.481 16.864C43.897 16.4587 44.3823 16.1387 44.937 15.904C45.497 15.6693 46.1023 15.552 46.753 15.552C47.281 15.552 47.7876 15.6267 48.273 15.776C48.7636 15.9253 49.1583 16.1173 49.457 16.352L48.617 18.008C48.217 17.7147 47.721 17.568 47.129 17.568C46.6223 17.568 46.193 17.68 45.841 17.904C45.489 18.128 45.2196 18.4187 45.033 18.776C44.8516 19.1333 44.761 19.5093 44.761 19.904C44.761 20.336 44.8596 20.7307 45.057 21.088C45.2543 21.44 45.5316 21.72 45.889 21.928C46.2516 22.136 46.6703 22.24 47.145 22.24C47.4383 22.24 47.713 22.2 47.969 22.12C48.225 22.04 48.441 21.9333 48.617 21.8L49.457 23.456C49.153 23.6853 48.761 23.8747 48.281 24.024C47.801 24.1787 47.2943 24.256 46.761 24.256ZM54.7825 24.256C54.0305 24.256 53.3451 24.0693 52.7265 23.696C52.1131 23.3173 51.6251 22.8 51.2625 22.144C50.9051 21.4827 50.7265 20.7307 50.7265 19.888C50.7265 19.0667 50.8998 18.3307 51.2465 17.68C51.5931 17.024 52.0705 16.5067 52.6785 16.128C53.2918 15.744 53.9931 15.552 54.7825 15.552C55.3638 15.552 55.9051 15.664 56.4065 15.888C56.9131 16.1067 57.3265 16.4133 57.6465 16.808V15.808H60.1025V24H57.6465V22.92C57.2731 23.352 56.8438 23.6827 56.3585 23.912C55.8731 24.1413 55.3478 24.256 54.7825 24.256ZM55.5105 22.168C55.9371 22.168 56.3158 22.072 56.6465 21.88C56.9771 21.6827 57.2358 21.4133 57.4225 21.072C57.6091 20.7307 57.7025 20.3413 57.7025 19.904C57.7025 19.4613 57.6065 19.072 57.4145 18.736C57.2278 18.3947 56.9691 18.128 56.6385 17.936C56.3131 17.7387 55.9371 17.64 55.5105 17.64C55.0891 17.64 54.7131 17.7387 54.3825 17.936C54.0518 18.128 53.7905 18.3947 53.5985 18.736C53.4065 19.0773 53.3105 19.4667 53.3105 19.904C53.3105 20.3413 53.4038 20.7307 53.5905 21.072C53.7825 21.4133 54.0438 21.6827 54.3745 21.88C54.7051 22.072 55.0838 22.168 55.5105 22.168ZM62.9915 24V15.808H65.4475V16.72C65.7621 16.368 66.1541 16.0853 66.6235 15.872C67.0981 15.6587 67.6208 15.552 68.1915 15.552C68.8208 15.552 69.3728 15.6907 69.8475 15.968C70.3275 16.24 70.7035 16.6213 70.9755 17.112C71.2475 17.5973 71.3835 18.1653 71.3835 18.816V24H68.9275V19.336C68.9275 18.7493 68.7728 18.2933 68.4635 17.968C68.1595 17.6373 67.7408 17.472 67.2075 17.472C66.8448 17.472 66.5301 17.5467 66.2635 17.696C66.0021 17.84 65.7995 18.04 65.6555 18.296C65.5168 18.5467 65.4475 18.832 65.4475 19.152V24H62.9915ZM77.5325 24.256C76.7805 24.256 76.0951 24.0693 75.4765 23.696C74.8631 23.3173 74.3751 22.8 74.0125 22.144C73.6551 21.4827 73.4765 20.7307 73.4765 19.888C73.4765 19.0667 73.6498 18.3307 73.9965 17.68C74.3431 17.024 74.8205 16.5067 75.4285 16.128C76.0418 15.744 76.7431 15.552 77.5325 15.552C78.1138 15.552 78.6551 15.664 79.1565 15.888C79.6631 16.1067 80.0765 16.4133 80.3965 16.808V15.808H82.8525V24H80.3965V22.92C80.0231 23.352 79.5938 23.6827 79.1085 23.912C78.6231 24.1413 78.0978 24.256 77.5325 24.256ZM78.2605 22.168C78.6871 22.168 79.0658 22.072 79.3965 21.88C79.7271 21.6827 79.9858 21.4133 80.1725 21.072C80.3591 20.7307 80.4525 20.3413 80.4525 19.904C80.4525 19.4613 80.3565 19.072 80.1645 18.736C79.9778 18.3947 79.7191 18.128 79.3885 17.936C79.0631 17.7387 78.6871 17.64 78.2605 17.64C77.8391 17.64 77.4631 17.7387 77.1325 17.936C76.8018 18.128 76.5405 18.3947 76.3485 18.736C76.1565 19.0773 76.0605 19.4667 76.0605 19.904C76.0605 20.3413 76.1538 20.7307 76.3405 21.072C76.5325 21.4133 76.7938 21.6827 77.1245 21.88C77.4551 22.072 77.8338 22.168 78.2605 22.168Z" fill="#101010"/>
<defs>
<linearGradient id="paint0_linear_4149_1784" x1="12.9799" y1="11.3291" x2="12.9799" y2="26.924" gradientUnits="userSpaceOnUse">
<stop stop-color="#0085FF"/>
<stop offset="1" stop-color="#29C8FA"/>
</linearGradient>
<linearGradient id="paint1_linear_4149_1784" x1="6.8826" y1="11.3305" x2="6.8826" y2="26.8919" gradientUnits="userSpaceOnUse">
<stop stop-color="#0085FF"/>
<stop offset="1" stop-color="#29C8FA"/>
</linearGradient>
</defs>
</svg>
