<svg width="122" height="122" viewBox="0 0 122 122" fill="none" xmlns="http://www.w3.org/2000/svg">
<mask id="path-1-inside-1_404_178" fill="white">
<path fill-rule="evenodd" clip-rule="evenodd" d="M3 100C1.34315 100 0 98.6569 0 97L0 3C0 1.34315 1.34314 0 3 0L97 0C98.6569 0 100 1.34315 100 3V31.7509C100 34.0108 102.472 35.5173 104.706 35.1744C105.454 35.0596 106.22 35 107 35C115.284 35 122 41.7157 122 50C122 58.2843 115.284 65 107 65C106.22 65 105.454 64.9404 104.706 64.8256C102.472 64.4827 100 65.9892 100 68.249V97C100 98.6569 98.6569 100 97 100H68.2491C65.9892 100 64.4827 102.472 64.8256 104.706C64.9404 105.454 65 106.22 65 107C65 115.284 58.2843 122 50 122C41.7157 122 35 115.284 35 107C35 106.22 35.0596 105.454 35.1744 104.706C35.5173 102.472 34.0108 100 31.751 100H3Z"/>
</mask>
<path fill-rule="evenodd" clip-rule="evenodd" d="M3 100C1.34315 100 0 98.6569 0 97L0 3C0 1.34315 1.34314 0 3 0L97 0C98.6569 0 100 1.34315 100 3V31.7509C100 34.0108 102.472 35.5173 104.706 35.1744C105.454 35.0596 106.22 35 107 35C115.284 35 122 41.7157 122 50C122 58.2843 115.284 65 107 65C106.22 65 105.454 64.9404 104.706 64.8256C102.472 64.4827 100 65.9892 100 68.249V97C100 98.6569 98.6569 100 97 100H68.2491C65.9892 100 64.4827 102.472 64.8256 104.706C64.9404 105.454 65 106.22 65 107C65 115.284 58.2843 122 50 122C41.7157 122 35 115.284 35 107C35 106.22 35.0596 105.454 35.1744 104.706C35.5173 102.472 34.0108 100 31.751 100H3Z" fill="white"/>
<path d="M104.706 35.1744L104.099 31.2207L104.706 35.1744ZM35.1744 104.706L31.2207 104.099L35.1744 104.706ZM-4 3L-4 97H4L4 3L-4 3ZM97 -4L3 -4L3 4L97 4V-4ZM104 31.7509V3L96 3V31.7509L104 31.7509ZM107 31C106.016 31 105.047 31.0751 104.099 31.2207L105.312 39.1281C105.86 39.044 106.424 39 107 39V31ZM126 50C126 39.5066 117.493 31 107 31V39C113.075 39 118 43.9249 118 50H126ZM107 69C117.493 69 126 60.4934 126 50H118C118 56.0751 113.075 61 107 61V69ZM104.099 68.7793C105.047 68.9249 106.016 69 107 69V61C106.424 61 105.86 60.956 105.312 60.8719L104.099 68.7793ZM104 97V68.249H96V97H104ZM68.2491 104H97V96H68.2491V104ZM60.8719 105.312C60.956 105.86 61 106.424 61 107H69C69 106.016 68.9249 105.047 68.7793 104.099L60.8719 105.312ZM61 107C61 113.075 56.0751 118 50 118V126C60.4934 126 69 117.493 69 107H61ZM50 118C43.9249 118 39 113.075 39 107H31C31 117.493 39.5066 126 50 126V118ZM39 107C39 106.424 39.044 105.86 39.1281 105.312L31.2207 104.099C31.0751 105.047 31 106.016 31 107H39ZM3 104H31.751L31.751 96H3L3 104ZM68.2491 96C65.5315 96 63.4595 97.5102 62.2642 99.2504C61.0918 100.957 60.5408 103.155 60.8719 105.312L68.7793 104.099C68.7763 104.079 68.7731 104.023 68.7919 103.943C68.811 103.862 68.8415 103.804 68.8584 103.78C68.8754 103.755 68.8489 103.805 68.7393 103.87C68.6148 103.943 68.4376 104 68.2491 104V96ZM96 97C96 96.4477 96.4477 96 97 96V104C100.866 104 104 100.866 104 97H96ZM96 31.7509C96 34.4685 97.5102 36.5405 99.2504 37.7358C100.957 38.9082 103.155 39.4592 105.312 39.1281L104.099 31.2207C104.079 31.2237 104.023 31.2269 103.943 31.2081C103.862 31.189 103.804 31.1585 103.78 31.1416C103.755 31.1246 103.805 31.1511 103.87 31.2607C103.943 31.3852 104 31.5624 104 31.7509L96 31.7509ZM105.312 60.8719C103.155 60.5408 100.957 61.0918 99.2504 62.2642C97.5102 63.4595 96 65.5315 96 68.249H104C104 68.4376 103.943 68.6148 103.87 68.7393C103.805 68.8489 103.755 68.8754 103.78 68.8584C103.804 68.8415 103.862 68.811 103.943 68.7919C104.023 68.7731 104.079 68.7763 104.099 68.7793L105.312 60.8719ZM39.1281 105.312C39.4592 103.155 38.9082 100.957 37.7358 99.2504C36.5405 97.5102 34.4685 96 31.751 96L31.751 104C31.5624 104 31.3852 103.943 31.2607 103.87C31.1511 103.805 31.1246 103.755 31.1416 103.78C31.1585 103.804 31.189 103.862 31.2081 103.943C31.2269 104.023 31.2237 104.079 31.2207 104.099L39.1281 105.312ZM97 4C96.4477 4 96 3.55228 96 3L104 3C104 -0.865992 100.866 -4 97 -4V4ZM-4 97C-4 100.866 -0.865988 104 3 104L3 96C3.55228 96 4 96.4477 4 97H-4ZM4 3C4 3.55228 3.55229 4 3 4L3 -4C-0.866001 -4 -4 -0.865988 -4 3L4 3Z" fill="white" mask="url(#path-1-inside-1_404_178)"/>
</svg>
