<svg width="20" height="20" viewBox="0 0 20 20" fill="none" xmlns="http://www.w3.org/2000/svg">
<path d="M11.6667 15L17.5 15M2.5 15H4.16667M4.16667 15C4.16667 16.1506 5.09941 17.0833 6.25 17.0833C7.40059 17.0833 8.33333 16.1506 8.33333 15C8.33333 13.8494 7.40059 12.9167 6.25 12.9167C5.09941 12.9167 4.16667 13.8494 4.16667 15ZM16.6667 10H17.5M2.5 10H8.33333M10.8333 5.00001H17.5M10.8333 5.00001C10.8333 3.84941 9.90059 2.91667 8.75 2.91667C7.59941 2.91667 6.66667 3.84941 6.66667 5.00001C6.66667 6.1506 7.59941 7.08334 8.75 7.08334C9.90059 7.08334 10.8333 6.1506 10.8333 5.00001ZM2.5 5.00001H3.33333M13.75 12.0833C12.5994 12.0833 11.6667 11.1506 11.6667 10C11.6667 8.84941 12.5994 7.91667 13.75 7.91667C14.9006 7.91667 15.8333 8.84941 15.8333 10C15.8333 11.1506 14.9006 12.0833 13.75 12.0833Z" stroke="white" stroke-width="2" stroke-linecap="round" stroke-linejoin="round"/>
</svg>
