<svg width="121" height="118" viewBox="0 0 121 118" fill="none" xmlns="http://www.w3.org/2000/svg">
<g opacity="0.419035">
<path d="M75.4866 3.51507C75.4866 5.45647 73.8987 7.03036 71.9401 7.03036C69.9814 7.03036 68.3936 5.45647 68.3936 3.51507C68.3936 1.57378 69.9814 0 71.9401 0C73.8987 0 75.4866 1.57378 75.4866 3.51507Z" fill="#3CA6FA"/>
</g>
<g opacity="0.796078">
<path d="M47.5551 12.2629L45.449 13.4682C45.0676 13.6864 44.58 13.5568 44.3599 13.179L40.5568 6.64993C40.3366 6.27206 40.4673 5.78881 40.8486 5.57068L42.9548 4.36533C43.3361 4.1472 43.8236 4.27665 44.0438 4.65452L47.8469 11.1835C48.0671 11.5615 47.9364 12.0447 47.5551 12.2629Z" fill="#3CA6FA"/>
</g>
<g opacity="0.796078">
<path d="M12.0271 25.8909L12.5008 26.0502C13.038 26.2308 13.6304 26.1377 14.0851 25.8014L14.4861 25.5049C15.631 24.658 17.2588 25.48 17.2405 26.8959L17.2341 27.3917C17.2268 27.9539 17.499 28.4837 17.9622 28.8084L18.3707 29.0947C19.5371 29.9123 19.2513 31.7005 17.8871 32.1209L17.4093 32.268C16.8676 32.4349 16.4436 32.8554 16.2753 33.3923L16.1267 33.8659C15.7027 35.218 13.8984 35.5012 13.0735 34.3451L12.7845 33.9403C12.457 33.4812 11.9225 33.2113 11.3553 33.2185L10.855 33.2248C9.4266 33.2428 8.59731 31.6297 9.4517 30.4948L9.75102 30.0973C10.0903 29.6468 10.1841 29.0596 10.0019 28.527L9.84119 28.0575C9.38245 26.7164 10.6741 25.4362 12.0271 25.8909Z" fill="#3CA6FA"/>
</g>
<g opacity="0.796078">
<path d="M8.99729 50.8228L9.52923 53.175C9.62555 53.6008 9.3554 54.0234 8.92571 54.1188L1.50373 55.7679C1.07415 55.8633 0.647831 55.5955 0.551388 55.1697L0.0194456 52.8174C-0.0767641 52.3916 0.19339 51.9691 0.622965 51.8737L8.04506 50.2246C8.47464 50.1292 8.90096 50.397 8.99729 50.8228Z" fill="#9DE000"/>
</g>
<g opacity="0.796078">
<path d="M16.4865 80.5004C16.4865 82.4417 14.8987 84.0155 12.9401 84.0155C10.9814 84.0155 9.39368 82.4417 9.39368 80.5004C9.39368 78.5591 10.9814 76.9853 12.9401 76.9853C14.8987 76.9853 16.4865 78.5591 16.4865 80.5004Z" fill="#F23D3D"/>
</g>
<g opacity="0.796078">
<path d="M12.0271 98.1798L12.5008 98.3391C13.038 98.5196 13.6304 98.4266 14.0851 98.0903L14.4861 97.7937C15.631 96.9469 17.2588 97.7689 17.2405 99.1848L17.2341 99.6806C17.2268 100.243 17.499 100.773 17.9622 101.097L18.3707 101.383C19.5371 102.201 19.2513 103.989 17.8871 104.41L17.4093 104.557C16.8676 104.724 16.4436 105.144 16.2753 105.681L16.1267 106.155C15.7027 107.507 13.8984 107.79 13.0735 106.634L12.7845 106.229C12.457 105.77 11.9225 105.5 11.3553 105.507L10.855 105.514C9.4266 105.532 8.59731 103.919 9.4517 102.784L9.75102 102.386C10.0903 101.936 10.1841 101.348 10.0019 100.816L9.84119 100.346C9.38245 99.0053 10.6741 97.7251 12.0271 98.1798Z" fill="#FAEE3D"/>
</g>
<g opacity="0.796078">
<path d="M103.306 22.5363C102.231 21.1479 102.563 19.0798 104.043 17.9549C105.522 16.8299 107.624 17.0465 108.698 18.4349C108.7 18.4375 108.702 18.4402 108.704 18.4427" stroke="#F23D3D" stroke-width="1.98137" stroke-linecap="round" stroke-linejoin="round"/>
</g>
<g opacity="0.796078">
<path d="M112.689 41.7776L113.163 41.9369C113.7 42.1175 114.293 42.0244 114.747 41.6881L115.148 41.3915C116.293 40.5447 117.921 41.3667 117.903 42.7826L117.896 43.2784C117.889 43.8406 118.161 44.3704 118.624 44.695L119.033 44.9814C120.199 45.7989 119.914 47.5872 118.55 48.0075L118.072 48.1547C117.53 48.3216 117.106 48.7421 116.937 49.279L116.789 49.7526C116.365 51.1047 114.561 51.3879 113.736 50.2318L113.447 49.827C113.119 49.3679 112.585 49.0979 112.018 49.1052L111.517 49.1115C110.089 49.1295 109.259 47.5163 110.114 46.3816L110.413 45.9841C110.752 45.5335 110.846 44.9462 110.664 44.4137L110.503 43.9441C110.045 42.6031 111.336 41.3229 112.689 41.7776Z" fill="#FAEE3D"/>
</g>
<g opacity="0.796078">
<path d="M116.173 83.3361C118.585 83.6508 120.293 85.987 119.958 88.5112C119.623 91.0355 117.362 92.8536 114.951 92.5388C114.946 92.5382 114.942 92.5376 114.937 92.537" stroke="#F23D3D" stroke-width="1.48603" stroke-linecap="round" stroke-linejoin="round"/>
</g>
<g opacity="0.796078">
<path d="M108.574 112.988L106.467 114.193C106.086 114.411 105.599 114.282 105.379 113.904L101.575 107.375C101.355 106.997 101.486 106.514 101.867 106.295L103.973 105.09C104.355 104.872 104.842 105.001 105.062 105.379L108.866 111.908C109.086 112.286 108.955 112.769 108.574 112.988Z" fill="#3CA6FA"/>
</g>
<g opacity="0.796078">
<path d="M39.5441 116.8C38.0634 114.888 38.5218 112.038 40.5597 110.488C42.5977 108.939 45.493 109.237 46.9737 111.15L46.9822 111.161" stroke="#3CA6FA" stroke-width="1.98137" stroke-linecap="round" stroke-linejoin="round"/>
</g>
<path d="M106.513 55.8617C106.513 79.0818 87.5199 97.9056 64.0908 97.9056C40.6618 97.9056 21.6687 79.0818 21.6687 55.8617C21.6687 32.6415 40.6618 13.8179 64.0908 13.8179C87.5199 13.8179 106.513 32.6415 106.513 55.8617Z" fill="#9DE000"/>
<path d="M45.3311 55.9338L57.7675 68.2596L82.7846 43.4655" stroke="white" stroke-width="5.7388" stroke-linecap="round" stroke-linejoin="round"/>
</svg>
