<svg width="16" height="16" viewBox="0 0 16 16" fill="none" xmlns="http://www.w3.org/2000/svg">
<path d="M10.6664 5.33333C10.6664 6.04058 10.3854 6.71885 9.88534 7.21895C9.38525 7.71905 8.70697 8 7.99973 8C7.29248 8 6.61421 7.71905 6.11411 7.21895C5.61401 6.71885 5.33306 6.04058 5.33306 5.33333M2.42187 4.93426L1.95521 10.5343C1.85495 11.7373 1.80483 12.3388 2.00818 12.8028C2.18685 13.2105 2.49641 13.5469 2.88785 13.7588C3.33337 14 3.93697 14 5.14415 14H10.8553C12.0625 14 12.6661 14 13.1116 13.7588C13.503 13.5469 13.8126 13.2105 13.9913 12.8028C14.1946 12.3388 14.1445 11.7373 14.0442 10.5343L13.5776 4.93426C13.4913 3.89917 13.4482 3.38162 13.219 2.9899C13.0171 2.64496 12.7166 2.3684 12.356 2.1959C11.9466 2 11.4273 2 10.3886 2L5.61082 2C4.57214 2 4.0528 2 3.6434 2.1959C3.28289 2.3684 2.98232 2.64496 2.78048 2.9899C2.55126 3.38162 2.50813 3.89917 2.42187 4.93426Z" stroke="#1D2A31" stroke-width="1.5" stroke-linecap="round" stroke-linejoin="round"/>
</svg>
