<svg width="20" height="20" viewBox="0 0 20 20" fill="none" xmlns="http://www.w3.org/2000/svg">
<g clip-path="url(#clip0_1212_2765)">
<path d="M6.66699 6.66699V4.33366C6.66699 3.40024 6.66699 2.93353 6.84865 2.57701C7.00844 2.2634 7.2634 2.00844 7.57701 1.84865C7.93353 1.66699 8.40024 1.66699 9.33366 1.66699H15.667C16.6004 1.66699 17.0671 1.66699 17.4236 1.84865C17.7372 2.00844 17.9922 2.2634 18.152 2.57701C18.3337 2.93353 18.3337 3.40024 18.3337 4.33366V10.667C18.3337 11.6004 18.3337 12.0671 18.152 12.4236C17.9922 12.7372 17.7372 12.9922 17.4236 13.152C17.0671 13.3337 16.6004 13.3337 15.667 13.3337H13.3337M4.33366 18.3337H10.667C11.6004 18.3337 12.0671 18.3337 12.4236 18.152C12.7372 17.9922 12.9922 17.7372 13.152 17.4236C13.3337 17.0671 13.3337 16.6004 13.3337 15.667V9.33366C13.3337 8.40024 13.3337 7.93353 13.152 7.57701C12.9922 7.2634 12.7372 7.00844 12.4236 6.84865C12.0671 6.66699 11.6004 6.66699 10.667 6.66699H4.33366C3.40024 6.66699 2.93353 6.66699 2.57701 6.84865C2.2634 7.00844 2.00844 7.2634 1.84865 7.57701C1.66699 7.93353 1.66699 8.40024 1.66699 9.33366V15.667C1.66699 16.6004 1.66699 17.0671 1.84865 17.4236C2.00844 17.7372 2.2634 17.9922 2.57701 18.152C2.93353 18.3337 3.40024 18.3337 4.33366 18.3337Z" stroke="#333333" stroke-width="2" stroke-linecap="round" stroke-linejoin="round"/>
</g>
<defs>
<clipPath id="clip0_1212_2765">
<rect width="20" height="20" fill="#333333"/>
</clipPath>
</defs>
</svg>
