<svg width="20" height="20" viewBox="0 0 20 20" fill="none" xmlns="http://www.w3.org/2000/svg">
<path d="M6.66699 6.66663V4.33329C6.66699 3.39987 6.66699 2.93316 6.84865 2.57664C7.00844 2.26304 7.2634 2.00807 7.57701 1.84828C7.93353 1.66663 8.40024 1.66663 9.33366 1.66663H15.667C16.6004 1.66663 17.0671 1.66663 17.4236 1.84828C17.7372 2.00807 17.9922 2.26304 18.152 2.57664C18.3337 2.93316 18.3337 3.39987 18.3337 4.33329V10.6666C18.3337 11.6 18.3337 12.0668 18.152 12.4233C17.9922 12.7369 17.7372 12.9918 17.4236 13.1516C17.0671 13.3333 16.6004 13.3333 15.667 13.3333H13.3337M4.33366 18.3333H10.667C11.6004 18.3333 12.0671 18.3333 12.4236 18.1516C12.7372 17.9918 12.9922 17.7369 13.152 17.4233C13.3337 17.0668 13.3337 16.6 13.3337 15.6666V9.33329C13.3337 8.39987 13.3337 7.93316 13.152 7.57664C12.9922 7.26304 12.7372 7.00807 12.4236 6.84828C12.0671 6.66663 11.6004 6.66663 10.667 6.66663H4.33366C3.40024 6.66663 2.93353 6.66663 2.57701 6.84828C2.2634 7.00807 2.00844 7.26304 1.84865 7.57664C1.66699 7.93316 1.66699 8.39987 1.66699 9.33329V15.6666C1.66699 16.6 1.66699 17.0668 1.84865 17.4233C2.00844 17.7369 2.2634 17.9918 2.57701 18.1516C2.93353 18.3333 3.40024 18.3333 4.33366 18.3333Z" stroke="#1D2A31" stroke-width="1.5" stroke-linecap="round" stroke-linejoin="round"/>
</svg>
