<svg width="20" height="20" viewBox="0 0 20 20" fill="none" xmlns="http://www.w3.org/2000/svg">
<path d="M3.33301 16.6659H2.58301C2.58301 16.8648 2.66203 17.0556 2.80268 17.1962C2.94333 17.3369 3.1341 17.4159 3.33301 17.4159L3.33301 16.6659ZM3.33301 13.3326L2.80268 12.8022C2.66203 12.9429 2.58301 13.1337 2.58301 13.3326H3.33301ZM12.3902 4.27536L11.8599 3.74503L11.8599 3.74504L12.3902 4.27536ZM14.2758 4.27536L13.7455 4.80569V4.80569L14.2758 4.27536ZM15.7235 5.72308L16.2538 5.19275L16.2538 5.19275L15.7235 5.72308ZM15.7235 7.6087L15.1932 7.07837V7.07837L15.7235 7.6087ZM6.66634 16.6659L6.66635 17.4159C6.86526 17.4159 7.05602 17.3369 7.19667 17.1962L6.66634 16.6659ZM16.2804 6.40841L16.9937 6.17665L16.2804 6.40841ZM16.2804 6.92338L15.5671 6.69161L16.2804 6.92338ZM13.0755 3.71852L12.8438 3.00523L13.0755 3.71852ZM13.5906 3.71852L13.8223 3.00523L13.5906 3.71852ZM10.53 6.13558C10.2371 5.84269 9.76224 5.84269 9.46934 6.13558C9.17645 6.42847 9.17645 6.90335 9.46934 7.19624L10.53 6.13558ZM12.8027 10.5296C13.0956 10.8225 13.5704 10.8225 13.8633 10.5296C14.1562 10.2367 14.1562 9.76181 13.8633 9.46891L12.8027 10.5296ZM4.08301 16.6659V13.3326H2.58301V16.6659H4.08301ZM3.86334 13.8629L12.9205 4.80569L11.8599 3.74504L2.80268 12.8022L3.86334 13.8629ZM13.7455 4.80569L15.1932 6.25341L16.2538 5.19275L14.8061 3.74503L13.7455 4.80569ZM15.1932 7.07837L6.13601 16.1356L7.19667 17.1962L16.2539 8.13903L15.1932 7.07837ZM6.66634 15.9159L3.333 15.9159L3.33301 17.4159L6.66635 17.4159L6.66634 15.9159ZM15.1932 6.25341C15.3669 6.42717 15.465 6.52601 15.5308 6.60354C15.5909 6.67437 15.579 6.67672 15.5671 6.64018L16.9937 6.17665C16.92 5.94983 16.7946 5.77452 16.6743 5.63276C16.5596 5.49769 16.4101 5.34901 16.2538 5.19275L15.1932 6.25341ZM16.2539 8.13903C16.4101 7.98277 16.5596 7.83409 16.6743 7.69901C16.7946 7.55725 16.92 7.38194 16.9937 7.15514L15.5671 6.69161C15.579 6.65508 15.5909 6.65743 15.5308 6.72826C15.465 6.80577 15.367 6.90462 15.1932 7.07837L16.2539 8.13903ZM15.5671 6.64018C15.5725 6.65691 15.5725 6.67488 15.5671 6.69161L16.9937 7.15514C17.097 6.83713 17.097 6.49465 16.9937 6.17665L15.5671 6.64018ZM12.9205 4.8057C13.0943 4.63195 13.1931 4.53393 13.2706 4.46814C13.3414 4.40802 13.3438 4.41995 13.3073 4.43181L12.8438 3.00523C12.617 3.07892 12.4417 3.20426 12.2999 3.32461C12.1648 3.43927 12.0161 3.58877 11.8599 3.74503L12.9205 4.8057ZM14.8061 3.74503C14.6499 3.58881 14.5012 3.43931 14.3662 3.32466C14.2245 3.20431 14.0492 3.07893 13.8223 3.00523L13.3588 4.43181C13.3222 4.41993 13.3246 4.40797 13.3954 4.46809C13.4729 4.5339 13.5717 4.63191 13.7455 4.80569L14.8061 3.74503ZM13.3073 4.43181C13.324 4.42637 13.3421 4.42637 13.3588 4.43181L13.8223 3.00523C13.5043 2.9019 13.1618 2.9019 12.8438 3.00523L13.3073 4.43181ZM9.46934 7.19624L12.8027 10.5296L13.8633 9.46891L10.53 6.13558L9.46934 7.19624Z" fill="#333333"/>
</svg>
