<svg width="16" height="18" viewBox="0 0 16 18" fill="none" xmlns="http://www.w3.org/2000/svg">
<path d="M9.94631 1H5.34185C5.19827 1 5.12648 1 5.0631 1.02186C5.00705 1.04119 4.956 1.07275 4.91364 1.11423C4.86574 1.16115 4.83363 1.22536 4.76942 1.35378L1.40942 8.07378C1.25608 8.38047 1.1794 8.53381 1.19782 8.65846C1.2139 8.76731 1.27411 8.86472 1.36427 8.92778C1.46752 9 1.63897 9 1.98185 9H6.94631L4.54631 17L14.3008 6.88425C14.6299 6.54296 14.7944 6.37232 14.8041 6.22631C14.8124 6.09956 14.7601 5.97639 14.663 5.89443C14.5513 5.8 14.3142 5.8 13.8401 5.8H8.14631L9.94631 1Z" stroke="#74919C" stroke-width="1.5" stroke-linecap="round" stroke-linejoin="round"/>
</svg>
