<svg width="24" height="24" viewBox="0 0 24 24" fill="none" xmlns="http://www.w3.org/2000/svg">
<path d="M13.9463 4H9.34185C9.19827 4 9.12648 4 9.0631 4.02186C9.00705 4.04119 8.956 4.07275 8.91364 4.11423C8.86574 4.16115 8.83363 4.22536 8.76942 4.35378L5.40942 11.0738C5.25608 11.3805 5.1794 11.5338 5.19782 11.6585C5.2139 11.7673 5.27411 11.8647 5.36427 11.9278C5.46752 12 5.63897 12 5.98185 12H10.9463L8.54631 20L18.3008 9.88425C18.6299 9.54296 18.7944 9.37232 18.8041 9.22631C18.8124 9.09956 18.7601 8.97639 18.663 8.89443C18.5513 8.8 18.3142 8.8 17.8401 8.8H12.1463L13.9463 4Z" fill="currentColor" stroke="currentColor" stroke-width="1.5" stroke-linecap="round" stroke-linejoin="round"/>
</svg>
