<svg width="24" height="24" viewBox="0 0 24 24" fill="none" xmlns="http://www.w3.org/2000/svg">
<path d="M13.9465 4H9.34204C9.19845 4 9.12666 4 9.06328 4.02186C9.00723 4.04119 8.95618 4.07275 8.91382 4.11423C8.86592 4.16115 8.83382 4.22536 8.7696 4.35378L5.4096 11.0738C5.25626 11.3805 5.17959 11.5338 5.198 11.6585C5.21409 11.7673 5.27429 11.8647 5.36445 11.9278C5.46771 12 5.63915 12 5.98204 12H10.9465L8.5465 20L18.301 9.88425C18.6301 9.54296 18.7946 9.37232 18.8042 9.22631C18.8126 9.09956 18.7603 8.97639 18.6632 8.89443C18.5514 8.8 18.3144 8.8 17.8403 8.8H12.1465L13.9465 4Z" fill="#13171A" stroke="#13171A" stroke-width="1.5" stroke-linecap="round" stroke-linejoin="round"/>
<circle cx="19.5" cy="3.5" r="2.5" fill="#FA3636"/>
</svg>
