<svg width="115" height="13" viewBox="0 0 115 13" fill="none" xmlns="http://www.w3.org/2000/svg">
<path d="M3.32 3.64C3.13333 3.64 2.94333 3.65667 2.75 3.69C2.56333 3.72333 2.39333 3.78333 2.24 3.87C2.08667 3.95 1.96 4.06333 1.86 4.21C1.76667 4.35 1.72 4.53 1.72 4.75C1.72 5.01667 1.79 5.23333 1.93 5.4C2.07 5.56 2.24 5.68333 2.44 5.77C2.6 5.83667 2.77 5.89333 2.95 5.94C3.13 5.98667 3.31333 6.03 3.5 6.07C3.69333 6.11 3.88 6.15 4.06 6.19C4.24667 6.23 4.42667 6.28 4.6 6.34C5.00667 6.48 5.33 6.68 5.57 6.94C5.81667 7.2 5.94 7.54333 5.94 7.97C5.94 8.37 5.87 8.7 5.73 8.96C5.59667 9.22 5.41333 9.43333 5.18 9.6C4.95333 9.76667 4.68667 9.89 4.38 9.97C4.08 10.0433 3.76 10.08 3.42 10.08C3.08 10.08 2.75333 10.0467 2.44 9.98C2.13333 9.91333 1.85333 9.80333 1.6 9.65C1.34667 9.49667 1.13 9.29667 0.95 9.05C0.77 8.80333 0.643333 8.50333 0.57 8.15H1.48C1.54667 8.37667 1.65 8.56333 1.79 8.71C1.93 8.85667 2.09 8.97333 2.27 9.06C2.45 9.14667 2.64333 9.20667 2.85 9.24C3.06333 9.27333 3.27333 9.29 3.48 9.29C3.68 9.29 3.87333 9.27 4.06 9.23C4.25333 9.18333 4.42333 9.11333 4.57 9.02C4.71667 8.92667 4.83333 8.80667 4.92 8.66C5.00667 8.51333 5.05 8.33667 5.05 8.13C5.05 7.81667 4.96667 7.58333 4.8 7.43C4.63333 7.27667 4.41 7.16 4.13 7.08C3.94333 7.02 3.74667 6.97 3.54 6.93C3.33333 6.89 3.12667 6.84667 2.92 6.8C2.71333 6.75333 2.51 6.7 2.31 6.64C2.11 6.57333 1.92667 6.49667 1.76 6.41C1.49333 6.28333 1.27 6.09 1.09 5.83C0.91 5.56333 0.82 5.23 0.82 4.83C0.82 4.45667 0.893333 4.14333 1.04 3.89C1.18667 3.63667 1.37667 3.43333 1.61 3.28C1.84333 3.12667 2.10333 3.01667 2.39 2.95C2.68333 2.88333 2.99333 2.85 3.32 2.85C3.58667 2.85667 3.82667 2.88 4.04 2.92C4.26 2.95333 4.46667 3.01667 4.66 3.11C4.96 3.24333 5.21 3.44333 5.41 3.71C5.61 3.97667 5.72 4.32 5.74 4.74H4.89C4.86333 4.53333 4.8 4.36 4.7 4.22C4.60667 4.08 4.49 3.96667 4.35 3.88C4.21 3.79333 4.05 3.73333 3.87 3.7C3.69667 3.66 3.51333 3.64 3.32 3.64ZM7.85344 7.68C7.87344 7.91333 7.9201 8.13 7.99344 8.33C8.07344 8.52333 8.1801 8.69333 8.31344 8.84C8.44677 8.98667 8.6101 9.10333 8.80344 9.19C9.00344 9.27 9.23344 9.31 9.49344 9.31C9.6201 9.31 9.7501 9.3 9.88344 9.28C10.0234 9.25333 10.1534 9.21333 10.2734 9.16C10.3934 9.1 10.5001 9.02333 10.5934 8.93C10.6868 8.83667 10.7568 8.72333 10.8034 8.59H11.6734C11.6134 8.84333 11.5101 9.06333 11.3634 9.25C11.2234 9.43667 11.0534 9.59 10.8534 9.71C10.6601 9.83 10.4434 9.92 10.2034 9.98C9.96344 10.0333 9.7201 10.06 9.47344 10.06C9.05344 10.06 8.68677 9.99333 8.37344 9.86C8.06677 9.72667 7.8101 9.54333 7.60344 9.31C7.39677 9.07 7.24344 8.78667 7.14344 8.46C7.04344 8.12667 6.99344 7.76333 6.99344 7.37C6.99344 6.97667 7.04677 6.61667 7.15344 6.29C7.26677 5.95667 7.42677 5.67 7.63344 5.43C7.8401 5.19 8.09344 5.00333 8.39344 4.87C8.69344 4.73667 9.0501 4.67 9.46344 4.67C9.88344 4.67 10.2468 4.75333 10.5534 4.92C10.8601 5.08667 11.1068 5.30667 11.2934 5.58C11.4801 5.84667 11.6101 6.13667 11.6834 6.45C11.7634 6.76333 11.7968 7.05333 11.7834 7.32C11.7834 7.38 11.7801 7.44 11.7734 7.5C11.7734 7.56 11.7701 7.62 11.7634 7.68H7.85344ZM10.9234 6.94C10.9101 6.49333 10.7701 6.13 10.5034 5.85C10.2368 5.57 9.8801 5.43 9.43344 5.43C9.18677 5.43 8.9701 5.47 8.78344 5.55C8.59677 5.63 8.4401 5.74 8.31344 5.88C8.18677 6.02 8.08677 6.18333 8.01344 6.37C7.9401 6.55 7.89344 6.74 7.87344 6.94H10.9234ZM15.2735 10.06C14.8535 10.06 14.4902 9.99333 14.1835 9.86C13.8768 9.72667 13.6235 9.54 13.4235 9.3C13.2235 9.06 13.0735 8.77667 12.9735 8.45C12.8735 8.12333 12.8235 7.76667 12.8235 7.38C12.8235 7.00667 12.8768 6.65667 12.9835 6.33C13.0902 5.99667 13.2468 5.71 13.4535 5.47C13.6602 5.22333 13.9202 5.03 14.2335 4.89C14.5468 4.74333 14.9268 4.67 15.3735 4.67C15.6402 4.67 15.8768 4.7 16.0835 4.76C16.2902 4.81333 16.4835 4.90333 16.6635 5.03C16.8502 5.15 17.0102 5.31 17.1435 5.51C17.2768 5.71 17.3735 5.95333 17.4335 6.24H16.5635C16.4635 5.94667 16.3035 5.73667 16.0835 5.61C15.8702 5.48333 15.6168 5.42333 15.3235 5.43C15.0368 5.43 14.7835 5.48667 14.5635 5.6C14.3502 5.70667 14.1768 5.85 14.0435 6.03C13.9168 6.21 13.8235 6.42 13.7635 6.66C13.7035 6.89333 13.6735 7.13333 13.6735 7.38C13.6735 7.64 13.7035 7.88667 13.7635 8.12C13.8302 8.35333 13.9268 8.56 14.0535 8.74C14.1868 8.91333 14.3568 9.05333 14.5635 9.16C14.7702 9.26 15.0168 9.31 15.3035 9.31C15.4435 9.31 15.5802 9.29667 15.7135 9.27C15.8535 9.24333 15.9802 9.2 16.0935 9.14C16.2135 9.07333 16.3168 8.98667 16.4035 8.88C16.4902 8.77333 16.5535 8.64333 16.5935 8.49H17.4735C17.4202 8.76333 17.3235 9 17.1835 9.2C17.0502 9.39333 16.8835 9.55667 16.6835 9.69C16.4835 9.81667 16.2635 9.91 16.0235 9.97C15.7835 10.03 15.5335 10.06 15.2735 10.06ZM20.7509 9.31C21.2309 9.31 21.5809 9.16667 21.8009 8.88C22.0275 8.58667 22.1409 8.18 22.1409 7.66V4.73H22.9909V7.7C22.9909 8.5 22.7975 9.09333 22.4109 9.48C22.0309 9.86667 21.4775 10.06 20.7509 10.06C20.0242 10.06 19.4709 9.86667 19.0909 9.48C18.7175 9.09333 18.5309 8.5 18.5309 7.7V4.73H19.3809V7.66C19.3809 8.18 19.4942 8.58667 19.7209 8.88C19.9475 9.16667 20.2909 9.31 20.7509 9.31ZM24.3126 10V4.73H25.1326L25.1726 5.55C25.3659 5.24333 25.6126 5.02 25.9126 4.88C26.2126 4.74 26.5526 4.67 26.9326 4.67H27.2026V5.47H26.8926C26.5792 5.47 26.3126 5.52333 26.0926 5.63C25.8726 5.73 25.6926 5.87 25.5526 6.05C25.4192 6.22333 25.3192 6.43 25.2526 6.67C25.1926 6.91 25.1626 7.16333 25.1626 7.43V10H24.3126ZM28.6054 7.68C28.6254 7.91333 28.6721 8.13 28.7454 8.33C28.8254 8.52333 28.9321 8.69333 29.0654 8.84C29.1987 8.98667 29.3621 9.10333 29.5554 9.19C29.7554 9.27 29.9854 9.31 30.2454 9.31C30.3721 9.31 30.5021 9.3 30.6354 9.28C30.7754 9.25333 30.9054 9.21333 31.0254 9.16C31.1454 9.1 31.2521 9.02333 31.3454 8.93C31.4387 8.83667 31.5087 8.72333 31.5554 8.59H32.4254C32.3654 8.84333 32.2621 9.06333 32.1154 9.25C31.9754 9.43667 31.8054 9.59 31.6054 9.71C31.4121 9.83 31.1954 9.92 30.9554 9.98C30.7154 10.0333 30.4721 10.06 30.2254 10.06C29.8054 10.06 29.4387 9.99333 29.1254 9.86C28.8187 9.72667 28.5621 9.54333 28.3554 9.31C28.1487 9.07 27.9954 8.78667 27.8954 8.46C27.7954 8.12667 27.7454 7.76333 27.7454 7.37C27.7454 6.97667 27.7987 6.61667 27.9054 6.29C28.0187 5.95667 28.1787 5.67 28.3854 5.43C28.5921 5.19 28.8454 5.00333 29.1454 4.87C29.4454 4.73667 29.8021 4.67 30.2154 4.67C30.6354 4.67 30.9987 4.75333 31.3054 4.92C31.6121 5.08667 31.8587 5.30667 32.0454 5.58C32.2321 5.84667 32.3621 6.13667 32.4354 6.45C32.5154 6.76333 32.5487 7.05333 32.5354 7.32C32.5354 7.38 32.5321 7.44 32.5254 7.5C32.5254 7.56 32.5221 7.62 32.5154 7.68H28.6054ZM31.6754 6.94C31.6621 6.49333 31.5221 6.13 31.2554 5.85C30.9887 5.57 30.6321 5.43 30.1854 5.43C29.9387 5.43 29.7221 5.47 29.5354 5.55C29.3487 5.63 29.1921 5.74 29.0654 5.88C28.9387 6.02 28.8387 6.18333 28.7654 6.37C28.6921 6.55 28.6454 6.74 28.6254 6.94H31.6754ZM38.3778 10H37.5678L37.5278 9.21C37.3478 9.51 37.0978 9.72667 36.7778 9.86C36.4645 9.99333 36.1345 10.06 35.7878 10.06C35.3878 10.0533 35.0411 9.98333 34.7478 9.85C34.4545 9.71 34.2145 9.52 34.0278 9.28C33.8411 9.04 33.7011 8.76 33.6078 8.44C33.5211 8.11333 33.4778 7.76 33.4778 7.38C33.4778 7 33.5245 6.64667 33.6178 6.32C33.7111 5.98667 33.8545 5.7 34.0478 5.46C34.2411 5.21333 34.4845 5.02 34.7778 4.88C35.0711 4.74 35.4211 4.67 35.8278 4.67C36.1345 4.67 36.4445 4.72667 36.7578 4.84C37.0711 4.95333 37.3278 5.13667 37.5278 5.39V2.93H38.3778V10ZM35.8978 5.43C35.6111 5.43 35.3678 5.48333 35.1678 5.59C34.9678 5.69 34.8045 5.82667 34.6778 6C34.5578 6.17333 34.4678 6.38 34.4078 6.62C34.3545 6.85333 34.3278 7.11 34.3278 7.39C34.3278 7.67 34.3545 7.92333 34.4078 8.15C34.4611 8.37 34.5511 8.56667 34.6778 8.74C34.8045 8.91333 34.9678 9.05333 35.1678 9.16C35.3678 9.26 35.6145 9.31 35.9078 9.31C36.2478 9.31 36.5278 9.23 36.7478 9.07C36.9678 8.91 37.1445 8.71 37.2778 8.47C37.3711 8.30333 37.4378 8.12333 37.4778 7.93C37.5178 7.73 37.5378 7.53333 37.5378 7.34C37.5378 7.1 37.5145 6.88 37.4678 6.68C37.4278 6.48 37.3511 6.29333 37.2378 6.12C37.1045 5.92667 36.9278 5.76333 36.7078 5.63C36.4878 5.49667 36.2178 5.43 35.8978 5.43ZM42.5983 2.93H45.0783C45.4183 2.93 45.7249 2.95 45.9983 2.99C46.2783 3.03 46.5283 3.12333 46.7483 3.27C46.9416 3.39667 47.1049 3.57667 47.2383 3.81C47.3716 4.04333 47.4383 4.34 47.4383 4.7C47.4383 5.06 47.3549 5.38 47.1883 5.66C47.0283 5.94 46.7783 6.14667 46.4383 6.28C46.8916 6.36 47.2316 6.55333 47.4583 6.86C47.6849 7.16 47.7983 7.55 47.7983 8.03C47.7783 8.47 47.6849 8.81333 47.5183 9.06C47.3516 9.30667 47.1383 9.5 46.8783 9.64C46.6183 9.78 46.3249 9.87667 45.9983 9.93C45.6783 9.97667 45.3549 10 45.0283 10H42.5983V2.93ZM43.4683 3.72V6.03H44.8283C45.0149 6.03 45.2083 6.01667 45.4083 5.99C45.6083 5.96333 45.7883 5.90667 45.9483 5.82C46.1349 5.72667 46.2849 5.6 46.3983 5.44C46.5183 5.27333 46.5816 5.04667 46.5883 4.76C46.5883 4.53333 46.5483 4.35333 46.4683 4.22C46.3883 4.08 46.2783 3.97333 46.1383 3.9C45.9983 3.82667 45.8383 3.78 45.6583 3.76C45.4783 3.73333 45.2883 3.72 45.0883 3.72H43.4683ZM44.9983 9.21C45.2116 9.21 45.4249 9.2 45.6383 9.18C45.8583 9.16 46.0649 9.11 46.2583 9.03C46.4583 8.94333 46.6183 8.82 46.7383 8.66C46.8583 8.49333 46.9183 8.27 46.9183 7.99C46.9183 7.75 46.8716 7.55333 46.7783 7.4C46.6916 7.24667 46.5716 7.12667 46.4183 7.04C46.2716 6.95333 46.1016 6.89333 45.9083 6.86C45.7149 6.82667 45.5183 6.81 45.3183 6.81H43.4683V9.21H44.9983ZM53.591 4.73V10C53.591 10.7667 53.391 11.35 52.991 11.75C52.591 12.1567 52.021 12.36 51.281 12.36C50.8343 12.3533 50.431 12.2933 50.071 12.18C49.7177 12.0733 49.391 11.88 49.091 11.6L49.461 10.93C49.721 11.1367 49.9977 11.3 50.291 11.42C50.591 11.54 50.9043 11.6 51.231 11.6C51.5043 11.6 51.7377 11.5567 51.931 11.47C52.1243 11.39 52.281 11.2733 52.401 11.12C52.5277 10.9733 52.6177 10.7967 52.671 10.59C52.731 10.3833 52.761 10.16 52.761 9.92V9.29C52.6743 9.42333 52.5643 9.54333 52.431 9.65C52.3043 9.75 52.1643 9.83333 52.011 9.9C51.8643 9.96 51.7043 10.0033 51.531 10.03C51.3643 10.0633 51.1943 10.08 51.021 10.08C50.621 10.0733 50.2877 10.01 50.021 9.89C49.761 9.77 49.551 9.60333 49.391 9.39C49.2377 9.17667 49.1277 8.92333 49.061 8.63C48.9943 8.33 48.961 8 48.961 7.64V4.73H49.811V7.4C49.811 7.64 49.8243 7.87667 49.851 8.11C49.8843 8.34333 49.9477 8.55 50.041 8.73C50.1343 8.91 50.271 9.05667 50.451 9.17C50.631 9.27667 50.871 9.33 51.171 9.33C51.471 9.33 51.7243 9.26667 51.931 9.14C52.1443 9.01333 52.3077 8.85333 52.421 8.66C52.5477 8.46 52.631 8.24 52.671 8C52.7177 7.76 52.741 7.51333 52.741 7.26V4.73H53.591Z" fill="#333333"/>
<path d="M78.7911 8.78009C78.3055 8.78009 77.8629 8.6602 77.4634 8.42042C77.0673 8.17723 76.7522 7.84497 76.518 7.42365C76.2873 6.99891 76.1719 6.51594 76.1719 5.97474C76.1719 5.44724 76.2838 4.97454 76.5077 4.55665C76.7315 4.13533 77.0398 3.80308 77.4324 3.55988C77.8285 3.31325 78.2814 3.18994 78.7911 3.18994C79.1665 3.18994 79.5161 3.26187 79.8398 3.40574C80.167 3.54618 80.4339 3.74313 80.6406 3.99661V3.35436H82.2266V8.61567H80.6406V7.92204C80.3995 8.19949 80.1223 8.41186 79.8088 8.55915C79.4954 8.70644 79.1562 8.78009 78.7911 8.78009ZM79.2612 7.43907C79.5368 7.43907 79.7813 7.37741 79.9948 7.2541C80.2084 7.12736 80.3754 6.95438 80.4959 6.73516C80.6165 6.51594 80.6768 6.26589 80.6768 5.98501C80.6768 5.70071 80.6148 5.45066 80.4908 5.23487C80.3702 5.01564 80.2032 4.84438 79.9897 4.72107C79.7796 4.59433 79.5368 4.53096 79.2612 4.53096C78.9891 4.53096 78.7463 4.59433 78.5328 4.72107C78.3193 4.84438 78.1505 5.01564 78.0265 5.23487C77.9025 5.45409 77.8405 5.70414 77.8405 5.98501C77.8405 6.26589 77.9008 6.51594 78.0214 6.73516C78.1453 6.95438 78.3141 7.12736 78.5276 7.2541C78.7412 7.37741 78.9857 7.43907 79.2612 7.43907Z" fill="#121212"/>
<path d="M84.0922 8.61567V3.35436H85.6782V4.10964C85.8745 3.81506 86.1139 3.58899 86.3963 3.43143C86.6822 3.27044 86.9887 3.18994 87.3159 3.18994C87.5019 3.18994 87.6948 3.21734 87.8945 3.27215C88.0943 3.32695 88.2613 3.39717 88.3956 3.48281L87.7344 4.81355C87.6173 4.73477 87.4795 4.67311 87.3211 4.62858C87.1661 4.58063 87.0214 4.55665 86.8871 4.55665C86.6805 4.55665 86.4842 4.60974 86.2982 4.71593C86.1122 4.82211 85.9624 4.96084 85.8487 5.13211C85.7351 5.29995 85.6782 5.48149 85.6782 5.67673V8.61567H84.0922Z" fill="#121212"/>
<path d="M91.6926 8.78009C91.2896 8.78009 90.9091 8.70815 90.5509 8.56429C90.1961 8.42043 89.8827 8.22176 89.6106 7.96828C89.3386 7.71138 89.125 7.41509 88.97 7.07941C88.8151 6.7403 88.7376 6.37721 88.7376 5.99015C88.7376 5.61679 88.8099 5.26227 88.9545 4.92659C89.1026 4.5909 89.3093 4.2929 89.5745 4.03257C89.8431 3.77225 90.1565 3.56673 90.5147 3.41601C90.8763 3.2653 91.2673 3.18994 91.6874 3.18994C92.0284 3.18994 92.3556 3.2379 92.669 3.33381C92.9859 3.42971 93.2407 3.55303 93.4336 3.70374L92.8911 4.76731C92.6328 4.57891 92.3125 4.48472 91.9302 4.48472C91.6031 4.48472 91.3258 4.55665 91.0985 4.70051C90.8712 4.84438 90.6973 5.03106 90.5767 5.26056C90.4596 5.49005 90.4011 5.73154 90.4011 5.98501C90.4011 6.26247 90.4648 6.51594 90.5922 6.74544C90.7196 6.97151 90.8987 7.15134 91.1295 7.28493C91.3637 7.41852 91.634 7.48531 91.9406 7.48531C92.13 7.48531 92.3074 7.45962 92.4727 7.40824C92.638 7.35686 92.7775 7.28835 92.8911 7.20272L93.4336 8.26628C93.2373 8.41357 92.9841 8.53517 92.6742 8.63108C92.3642 8.73042 92.037 8.78009 91.6926 8.78009Z" fill="#121212"/>
<path d="M96.8726 8.78009C96.387 8.78009 95.9444 8.6602 95.5449 8.42042C95.1489 8.17723 94.8337 7.84497 94.5995 7.42365C94.3688 6.99891 94.2534 6.51594 94.2534 5.97474C94.2534 5.44724 94.3653 4.97454 94.5892 4.55665C94.8131 4.13533 95.1213 3.80308 95.5139 3.55988C95.91 3.31325 96.3629 3.18994 96.8726 3.18994C97.248 3.18994 97.5976 3.26187 97.9214 3.40574C98.2485 3.54618 98.5155 3.74313 98.7221 3.99661V3.35436H100.308V8.61567H98.7221V7.92204C98.481 8.19949 98.2038 8.41186 97.8904 8.55915C97.5769 8.70644 97.2377 8.78009 96.8726 8.78009ZM97.3427 7.43907C97.6183 7.43907 97.8628 7.37741 98.0763 7.2541C98.2899 7.12736 98.4569 6.95438 98.5775 6.73516C98.698 6.51594 98.7583 6.26589 98.7583 5.98501C98.7583 5.70071 98.6963 5.45066 98.5723 5.23487C98.4517 5.01564 98.2847 4.84438 98.0712 4.72107C97.8611 4.59433 97.6183 4.53096 97.3427 4.53096C97.0707 4.53096 96.8279 4.59433 96.6143 4.72107C96.4008 4.84438 96.232 5.01564 96.108 5.23487C95.9841 5.45409 95.9221 5.70414 95.9221 5.98501C95.9221 6.26589 95.9823 6.51594 96.1029 6.73516C96.2269 6.95438 96.3956 7.12736 96.6092 7.2541C96.8227 7.37741 97.0672 7.43907 97.3427 7.43907Z" fill="#121212"/>
<path d="M102.174 8.61567V3.35436H103.76V3.94009C103.963 3.71402 104.216 3.53247 104.519 3.39546C104.826 3.25845 105.163 3.18994 105.532 3.18994C105.938 3.18994 106.295 3.279 106.601 3.45712C106.911 3.63181 107.154 3.87672 107.33 4.19185C107.505 4.50356 107.593 4.86835 107.593 5.28625V8.61567H106.007V5.62022C106.007 5.24343 105.907 4.95056 105.707 4.74162C105.511 4.52925 105.241 4.42306 104.896 4.42306C104.662 4.42306 104.459 4.47102 104.287 4.56693C104.118 4.65941 103.987 4.78786 103.894 4.95228C103.805 5.11327 103.76 5.29652 103.76 5.50204V8.61567H102.174Z" fill="#121212"/>
<path d="M111.564 8.78009C111.078 8.78009 110.636 8.6602 110.236 8.42042C109.84 8.17723 109.525 7.84497 109.291 7.42365C109.06 6.99891 108.945 6.51594 108.945 5.97474C108.945 5.44724 109.057 4.97454 109.28 4.55665C109.504 4.13533 109.813 3.80308 110.205 3.55988C110.601 3.31325 111.054 3.18994 111.564 3.18994C111.939 3.18994 112.289 3.26187 112.613 3.40574C112.94 3.54618 113.207 3.74313 113.413 3.99661V3.35436H114.999V8.61567H113.413V7.92204C113.172 8.19949 112.895 8.41186 112.582 8.55915C112.268 8.70644 111.929 8.78009 111.564 8.78009ZM112.034 7.43907C112.31 7.43907 112.554 7.37741 112.768 7.2541C112.981 7.12736 113.148 6.95438 113.269 6.73516C113.389 6.51594 113.45 6.26589 113.45 5.98501C113.45 5.70071 113.388 5.45066 113.264 5.23487C113.143 5.01564 112.976 4.84438 112.762 4.72107C112.552 4.59433 112.31 4.53096 112.034 4.53096C111.762 4.53096 111.519 4.59433 111.306 4.72107C111.092 4.84438 110.923 5.01564 110.799 5.23487C110.675 5.45409 110.613 5.70414 110.613 5.98501C110.613 6.26589 110.674 6.51594 110.794 6.73516C110.918 6.95438 111.087 7.12736 111.3 7.2541C111.514 7.37741 111.758 7.43907 112.034 7.43907Z" fill="#121212"/>
<path fill-rule="evenodd" clip-rule="evenodd" d="M64.6771 9.99625C64.2317 10.5528 63.5852 10.9083 62.8799 10.9846C62.1745 11.0609 61.468 10.8517 60.9156 10.403C60.3813 9.93247 60.0542 9.26733 60.0061 8.55376C59.9581 7.84018 60.1931 7.13659 60.6595 6.59765L64.4831 2.00363C64.9286 1.44711 65.575 1.09166 66.2803 1.01539C66.9856 0.939131 67.692 1.1483 68.2444 1.59692C68.7787 2.06737 69.1058 2.73245 69.1539 3.44596C69.202 4.15948 68.967 4.86304 68.5008 5.40199L64.6771 9.99625ZM61.8717 9.2541C62.1228 9.45805 62.4439 9.55315 62.7645 9.5185C63.085 9.48386 63.3789 9.3223 63.5813 9.06934L67.4045 4.47628C67.6164 4.2313 67.7232 3.91153 67.7014 3.58723C67.6795 3.26292 67.5309 2.96062 67.2881 2.74674C67.037 2.54286 66.7159 2.4478 66.3954 2.48244C66.0748 2.51708 65.781 2.6786 65.5785 2.9315L61.7551 7.5236C61.65 7.64493 61.5696 7.78594 61.5186 7.93858C61.4676 8.09123 61.4469 8.25251 61.4578 8.41321C61.4686 8.57392 61.5107 8.73089 61.5817 8.87517C61.6528 9.01946 61.7513 9.14822 61.8717 9.2541Z" fill="#121212"/>
<g filter="url(#filter0_f_1724_2982)">
<path d="M65.3478 7.29113L66.8524 5.48476L67.3835 5.94502L65.8796 7.75126L65.3478 7.29113Z" fill="#848484"/>
</g>
<g filter="url(#filter1_f_1724_2982)">
<path d="M62.6577 4.82707L64.123 3.1734L64.6891 3.43745L63.2246 5.0909L62.6577 4.82707Z" fill="#848484"/>
</g>
<path fill-rule="evenodd" clip-rule="evenodd" d="M68.4196 9.97693C68.6355 10.2578 68.9053 10.4919 69.213 10.6651C69.5207 10.8383 69.8599 10.9471 70.2103 10.985C70.5607 11.0228 70.915 10.989 71.2521 10.8854C71.5892 10.7819 71.9021 10.6108 72.1721 10.3824C72.4421 10.154 72.6635 9.87294 72.8232 9.55617C72.9828 9.2394 73.0774 8.89338 73.1013 8.53886C73.1252 8.18434 73.0778 7.8286 72.9621 7.49297C72.8463 7.15734 72.6646 6.84873 72.4277 6.58562L68.6131 2.00147C68.1687 1.44615 67.5239 1.09146 66.8202 1.01536C66.1166 0.939261 65.4118 1.14798 64.8607 1.59564C64.3277 2.06508 64.0014 2.72872 63.9534 3.44071C63.9055 4.15269 64.1398 4.85474 64.605 5.39254L68.4196 9.97693ZM71.2184 9.23637C70.968 9.43988 70.6476 9.53478 70.3278 9.50021C70.008 9.46563 69.7148 9.30442 69.5128 9.05201L65.6982 4.46881C65.4868 4.22436 65.3803 3.90528 65.4021 3.58167C65.4238 3.25806 65.5721 2.95641 65.8143 2.74299C66.0648 2.53947 66.3852 2.44456 66.7051 2.47914C67.025 2.51371 67.3181 2.67492 67.5202 2.92735L71.3348 7.50959C71.4396 7.63064 71.5198 7.77134 71.5707 7.92365C71.6216 8.07595 71.6423 8.23688 71.6315 8.39724C71.6207 8.5576 71.5787 8.71424 71.5079 8.85822C71.437 9.0022 71.3385 9.1307 71.2184 9.23637Z" fill="#121212"/>
<g filter="url(#filter2_f_1724_2982)">
<path d="M68.8945 2.73251L70.0689 4.3648L69.4266 4.4571L68.2521 2.82527L68.8945 2.73251Z" fill="#848484"/>
</g>
<path d="M67.5939 4.18235L68.6162 5.25995C70.0221 3.28029 68.4256 1.06448 66.7582 1.00684L66.3281 2.49534C67.3399 2.3316 67.9846 3.33555 67.5939 4.18235Z" fill="url(#paint0_linear_1724_2982)"/>
<defs>
<filter id="filter0_f_1724_2982" x="63.6536" y="3.79076" width="5.42433" height="5.65455" filterUnits="userSpaceOnUse" color-interpolation-filters="sRGB">
<feFlood flood-opacity="0" result="BackgroundImageFix"/>
<feBlend mode="normal" in="SourceGraphic" in2="BackgroundImageFix" result="shape"/>
<feGaussianBlur stdDeviation="0.847049" result="effect1_foregroundBlur_1724_2982"/>
</filter>
<filter id="filter1_f_1724_2982" x="60.9641" y="1.47924" width="5.41945" height="5.30568" filterUnits="userSpaceOnUse" color-interpolation-filters="sRGB">
<feFlood flood-opacity="0" result="BackgroundImageFix"/>
<feBlend mode="normal" in="SourceGraphic" in2="BackgroundImageFix" result="shape"/>
<feGaussianBlur stdDeviation="0.847049" result="effect1_foregroundBlur_1724_2982"/>
</filter>
<filter id="filter2_f_1724_2982" x="66.5579" y="1.03832" width="5.20558" height="5.11281" filterUnits="userSpaceOnUse" color-interpolation-filters="sRGB">
<feFlood flood-opacity="0" result="BackgroundImageFix"/>
<feBlend mode="normal" in="SourceGraphic" in2="BackgroundImageFix" result="shape"/>
<feGaussianBlur stdDeviation="0.847049" result="effect1_foregroundBlur_1724_2982"/>
</filter>
<linearGradient id="paint0_linear_1724_2982" x1="67.3809" y1="1.78439" x2="68.2966" y2="5.13642" gradientUnits="userSpaceOnUse">
<stop stop-color="#121212"/>
<stop offset="1" stop-color="#171717"/>
</linearGradient>
</defs>
</svg>
