<svg width="16" height="16" viewBox="0 0 16 16" fill="none" xmlns="http://www.w3.org/2000/svg">
<g clip-path="url(#clip0_181_107)">
<path d="M9.01966 5.5679C8.63805 5.83996 8.17105 6 7.66667 6C6.378 6 5.33334 4.95533 5.33334 3.66667C5.33334 2.378 6.378 1.33333 7.66667 1.33333C8.50199 1.33333 9.2348 1.77228 9.64701 2.43209M4 13.3914H5.7402C5.96709 13.3914 6.19259 13.4184 6.41254 13.4724L8.25126 13.9193C8.65023 14.0164 9.06585 14.0259 9.46898 13.9476L11.502 13.5521C12.039 13.4475 12.5331 13.1903 12.9202 12.8137L14.3586 11.4145C14.7694 11.0156 14.7694 10.3683 14.3586 9.96871C13.9888 9.60896 13.4032 9.56846 12.9848 9.87354L11.3084 11.0966C11.0683 11.2721 10.7762 11.3666 10.4758 11.3666H8.857L9.88738 11.3665C10.4681 11.3665 10.9386 10.9089 10.9386 10.3439V10.1394C10.9386 9.67033 10.6104 9.26131 10.1427 9.14791L8.5524 8.76116C8.29359 8.69839 8.02854 8.66667 7.7621 8.66667C7.11889 8.66667 5.9546 9.19921 5.9546 9.19921L4 10.0166M13.3333 4.33333C13.3333 5.622 12.2887 6.66667 11 6.66667C9.71134 6.66667 8.66667 5.622 8.66667 4.33333C8.66667 3.04467 9.71134 2 11 2C12.2887 2 13.3333 3.04467 13.3333 4.33333ZM1.33334 9.73333L1.33334 13.6C1.33334 13.9734 1.33334 14.1601 1.406 14.3027C1.46991 14.4281 1.5719 14.5301 1.69734 14.594C1.83995 14.6667 2.02663 14.6667 2.4 14.6667H2.93334C3.3067 14.6667 3.49339 14.6667 3.636 14.594C3.76144 14.5301 3.86342 14.4281 3.92734 14.3027C4 14.1601 4 13.9734 4 13.6V9.73333C4 9.35996 4 9.17328 3.92734 9.03067C3.86342 8.90523 3.76144 8.80324 3.636 8.73933C3.49339 8.66667 3.3067 8.66667 2.93334 8.66667L2.4 8.66667C2.02663 8.66667 1.83995 8.66667 1.69734 8.73933C1.5719 8.80324 1.46991 8.90523 1.406 9.03067C1.33334 9.17328 1.33334 9.35996 1.33334 9.73333Z" stroke="#1D2A31" stroke-width="1.5" stroke-linecap="round" stroke-linejoin="round"/>
</g>
<defs>
<clipPath id="clip0_181_107">
<rect width="16" height="16" fill="white"/>
</clipPath>
</defs>
</svg>
