<svg width="20" height="20" viewBox="0 0 20 20" fill="none" xmlns="http://www.w3.org/2000/svg">
<path d="M11.6667 15.0001L17.5 15.0001M2.5 15.0001H4.16667M4.16667 15.0001C4.16667 16.1507 5.09941 17.0834 6.25 17.0834C7.40059 17.0834 8.33333 16.1507 8.33333 15.0001C8.33333 13.8495 7.40059 12.9167 6.25 12.9167C5.09941 12.9167 4.16667 13.8495 4.16667 15.0001ZM16.6667 10.0001H17.5M2.5 10.0001H8.33333M10.8333 5.00008H17.5M10.8333 5.00008C10.8333 3.84949 9.90059 2.91675 8.75 2.91675C7.59941 2.91675 6.66667 3.84949 6.66667 5.00008C6.66667 6.15067 7.59941 7.08341 8.75 7.08341C9.90059 7.08341 10.8333 6.15067 10.8333 5.00008ZM2.5 5.00008H3.33333M13.75 12.0834C12.5994 12.0834 11.6667 11.1507 11.6667 10.0001C11.6667 8.84949 12.5994 7.91675 13.75 7.91675C14.9006 7.91675 15.8333 8.84949 15.8333 10.0001C15.8333 11.1507 14.9006 12.0834 13.75 12.0834Z" stroke="#333333" stroke-width="2" stroke-linecap="round" stroke-linejoin="round"/>
</svg>
