<svg width="230" height="198" viewBox="0 0 230 198" fill="none" xmlns="http://www.w3.org/2000/svg">
<rect width="230" height="198" transform="matrix(-1 0 0 1 230 0)" fill="white"/>
<path fill-rule="evenodd" clip-rule="evenodd" d="M97.7487 139.063C93.2964 144.573 86.835 148.093 79.785 148.848C72.7349 149.603 65.6731 147.531 60.1518 143.089C54.8111 138.431 51.5414 131.847 51.0614 124.782C50.5814 117.718 52.9304 110.752 57.592 105.417L95.8099 59.9359C100.262 54.4264 106.723 50.9074 113.772 50.1524C120.822 49.3974 127.883 51.4681 133.404 55.9095C138.745 60.567 142.014 67.1512 142.495 74.215C142.975 81.2788 140.627 88.2441 135.967 93.5797L97.7487 139.063ZM69.708 131.716C72.2174 133.735 75.4269 134.676 78.6312 134.333C81.8355 133.99 84.7723 132.391 86.796 129.886L125.009 84.4152C127.127 81.9899 128.195 78.8242 127.976 75.6136C127.758 72.403 126.273 69.4101 123.846 67.2928C121.336 65.2743 118.127 64.3332 114.923 64.6761C111.719 65.0191 108.782 66.6181 106.758 69.1219L68.5424 114.584C67.4919 115.785 66.6888 117.181 66.1789 118.692C65.669 120.203 65.4622 121.8 65.5705 123.391C65.6787 124.982 66.0999 126.536 66.8098 127.964C67.5197 129.393 68.5046 130.667 69.708 131.716Z" fill="#121212"/>
<g filter="url(#filter0_f_666_260)">
<path d="M104.447 112.282L119.485 94.3988L124.793 98.9553L109.762 116.837L104.447 112.282Z" fill="#848484"/>
</g>
<g filter="url(#filter1_f_666_260)">
<path d="M77.5703 87.8892L92.2161 71.5179L97.8747 74.132L83.2362 90.5012L77.5703 87.8892Z" fill="#848484"/>
</g>
<path fill-rule="evenodd" clip-rule="evenodd" d="M135.154 138.872C137.311 141.652 140.008 143.97 143.084 145.685C146.159 147.399 149.549 148.476 153.052 148.851C156.554 149.226 160.096 148.891 163.465 147.866C166.835 146.841 169.962 145.147 172.66 142.885C175.359 140.624 177.572 137.842 179.168 134.706C180.764 131.57 181.709 128.144 181.948 124.635C182.187 121.125 181.713 117.603 180.556 114.28C179.4 110.958 177.583 107.902 175.216 105.298L137.088 59.9146C132.646 54.4169 126.201 50.9055 119.168 50.1521C112.135 49.3987 105.09 51.465 99.582 55.8968C94.2543 60.5443 90.9923 67.1144 90.513 74.163C90.0337 81.2116 92.3763 88.1619 97.026 93.4861L135.154 138.872ZM163.128 131.54C160.625 133.555 157.423 134.494 154.226 134.152C151.029 133.81 148.099 132.214 146.081 129.715L107.953 84.3412C105.84 81.9212 104.775 78.7622 104.993 75.5585C105.21 72.3548 106.692 69.3685 109.113 67.2556C111.617 65.2407 114.82 64.3012 118.017 64.6434C121.214 64.9857 124.144 66.5817 126.163 69.0808L164.291 114.445C165.339 115.643 166.141 117.036 166.65 118.544C167.158 120.052 167.365 121.645 167.257 123.233C167.149 124.82 166.729 126.371 166.021 127.796C165.313 129.222 164.329 130.494 163.128 131.54Z" fill="#121212"/>
<g filter="url(#filter2_f_666_260)">
<path d="M139.897 67.1522L151.635 83.3118L145.215 84.2256L133.476 68.0705L139.897 67.1522Z" fill="#848484"/>
</g>
<defs>
<filter id="filter0_f_666_260" x="85.8117" y="75.7637" width="57.6168" height="59.7084" filterUnits="userSpaceOnUse" color-interpolation-filters="sRGB">
<feFlood flood-opacity="0" result="BackgroundImageFix"/>
<feBlend mode="normal" in="SourceGraphic" in2="BackgroundImageFix" result="shape"/>
<feGaussianBlur stdDeviation="9.31754" result="effect1_foregroundBlur_666_260"/>
</filter>
<filter id="filter1_f_666_260" x="58.9352" y="52.8829" width="57.5744" height="56.2533" filterUnits="userSpaceOnUse" color-interpolation-filters="sRGB">
<feFlood flood-opacity="0" result="BackgroundImageFix"/>
<feBlend mode="normal" in="SourceGraphic" in2="BackgroundImageFix" result="shape"/>
<feGaussianBlur stdDeviation="9.31754" result="effect1_foregroundBlur_666_260"/>
</filter>
<filter id="filter2_f_666_260" x="114.841" y="48.517" width="55.4289" height="54.3437" filterUnits="userSpaceOnUse" color-interpolation-filters="sRGB">
<feFlood flood-opacity="0" result="BackgroundImageFix"/>
<feBlend mode="normal" in="SourceGraphic" in2="BackgroundImageFix" result="shape"/>
<feGaussianBlur stdDeviation="9.31754" result="effect1_foregroundBlur_666_260"/>
</filter>
</defs>
</svg>
