<svg width="230" height="198" viewBox="0 0 230 198" fill="none" xmlns="http://www.w3.org/2000/svg">
<rect width="230" height="198" transform="matrix(-1 0 0 1 230 0)" fill="black"/>
<path fill-rule="evenodd" clip-rule="evenodd" d="M96.8893 138.274C92.4712 143.729 86.0595 147.213 79.0636 147.96C72.0678 148.707 65.0603 146.657 59.5814 142.26C54.2818 137.649 51.0372 131.131 50.5609 124.138C50.0846 117.145 52.4156 110.249 57.0414 104.968L94.9653 59.9464C99.3834 54.4925 105.795 51.0091 112.79 50.2617C119.785 49.5143 126.792 51.5641 132.271 55.9606C137.57 60.5711 140.815 67.0888 141.291 74.0813C141.768 81.0737 139.438 87.9686 134.813 93.2504L96.8893 138.274ZM69.0642 131.001C71.5542 133 74.7391 133.932 77.9188 133.592C81.0984 133.253 84.0126 131.669 86.0208 129.19L123.94 84.1784C126.042 81.7776 127.101 78.6438 126.885 75.4657C126.668 72.2875 125.194 69.3249 122.786 67.2289C120.295 65.2309 117.111 64.2992 113.931 64.6387C110.752 64.9782 107.838 66.5611 105.829 69.0396L67.9075 114.042C66.8651 115.231 66.0682 116.613 65.5622 118.109C65.0562 119.605 64.851 121.185 64.9584 122.76C65.0659 124.335 65.4838 125.874 66.1882 127.288C66.8927 128.702 67.87 129.963 69.0642 131.001Z" fill="#EDEDED"/>
<g filter="url(#filter0_f_666_248)">
<path d="M103.536 111.764L118.459 94.0612L123.726 98.5717L108.811 116.273L103.536 111.764Z" fill="#B6B6B6"/>
</g>
<g filter="url(#filter1_f_666_248)">
<path d="M76.8659 87.6174L91.3991 71.4115L97.0141 73.9992L82.4882 90.203L76.8659 87.6174Z" fill="#B6B6B6"/>
</g>
<path fill-rule="evenodd" clip-rule="evenodd" d="M134.006 138.085C136.146 140.838 138.823 143.131 141.875 144.829C144.926 146.526 148.291 147.593 151.766 147.964C155.241 148.335 158.756 148.003 162.1 146.988C165.443 145.973 168.547 144.296 171.224 142.058C173.902 139.82 176.098 137.066 177.682 133.961C179.265 130.857 180.203 127.466 180.44 123.992C180.677 120.517 180.207 117.031 179.059 113.742C177.911 110.453 176.109 107.428 173.76 104.85L135.925 59.9253C131.517 54.4831 125.121 51.0072 118.143 50.2614C111.164 49.5156 104.173 51.561 98.7076 55.9481C93.4209 60.5486 90.184 67.0523 89.7084 74.0298C89.2327 81.0072 91.5573 87.8873 96.1712 93.1577L134.006 138.085ZM161.765 130.827C159.281 132.822 156.104 133.752 152.931 133.413C149.759 133.074 146.852 131.494 144.849 129.021L107.014 84.1052C104.917 81.7096 103.861 78.5826 104.077 75.4112C104.292 72.2399 105.763 69.2837 108.166 67.1922C110.65 65.1976 113.828 64.2676 117.001 64.6064C120.173 64.9452 123.081 66.5251 125.085 68.9989L162.919 113.905C163.959 115.091 164.754 116.47 165.259 117.963C165.764 119.455 165.969 121.032 165.862 122.604C165.755 124.175 165.339 125.71 164.636 127.121C163.934 128.532 162.956 129.792 161.765 130.827Z" fill="#EDEDED"/>
<g filter="url(#filter2_f_666_248)">
<path d="M138.713 67.0897L150.36 83.0861L143.99 83.9907L132.341 67.9987L138.713 67.0897Z" fill="#B6B6B6"/>
</g>
<path d="M125.811 81.2973L135.949 91.8578C149.894 72.4571 134.059 50.7422 117.521 50.1772L113.256 64.7646C123.291 63.16 129.686 72.9986 125.811 81.2973Z" fill="url(#paint0_linear_666_248)"/>
<defs>
<filter id="filter0_f_666_248" x="85.0443" y="75.5694" width="57.1741" height="59.1952" filterUnits="userSpaceOnUse" color-interpolation-filters="sRGB">
<feFlood flood-opacity="0" result="BackgroundImageFix"/>
<feBlend mode="normal" in="SourceGraphic" in2="BackgroundImageFix" result="shape"/>
<feGaussianBlur stdDeviation="9.24592" result="effect1_foregroundBlur_666_248"/>
</filter>
<filter id="filter1_f_666_248" x="58.3739" y="52.9197" width="57.1321" height="55.7752" filterUnits="userSpaceOnUse" color-interpolation-filters="sRGB">
<feFlood flood-opacity="0" result="BackgroundImageFix"/>
<feBlend mode="normal" in="SourceGraphic" in2="BackgroundImageFix" result="shape"/>
<feGaussianBlur stdDeviation="9.24592" result="effect1_foregroundBlur_666_248"/>
</filter>
<filter id="filter2_f_666_248" x="113.849" y="48.5979" width="55.0032" height="53.8847" filterUnits="userSpaceOnUse" color-interpolation-filters="sRGB">
<feFlood flood-opacity="0" result="BackgroundImageFix"/>
<feBlend mode="normal" in="SourceGraphic" in2="BackgroundImageFix" result="shape"/>
<feGaussianBlur stdDeviation="9.24592" result="effect1_foregroundBlur_666_248"/>
</filter>
<linearGradient id="paint0_linear_666_248" x1="123.698" y1="57.7972" x2="132.579" y2="90.7014" gradientUnits="userSpaceOnUse">
<stop stop-color="#EDEDED"/>
<stop offset="1" stop-color="#ECECEC"/>
</linearGradient>
</defs>
</svg>
