<svg width="34" height="34" viewBox="0 0 34 34" fill="none" xmlns="http://www.w3.org/2000/svg">
<path d="M31 17C31 9.26801 24.732 3 17 3V5C23.6274 5 29 10.3726 29 17H31ZM17 3C9.26801 3 3 9.26801 3 17H5C5 10.3726 10.3726 5 17 5V3ZM3 17C3 24.732 9.26801 31 17 31V29C10.3726 29 5 23.6274 5 17H3ZM17 31C24.732 31 31 24.732 31 17H29C29 23.6274 23.6274 29 17 29V31Z" fill="#F7F7F7"/>
<path d="M18.25 15.6667V20.3333M15.75 15.6667L15.75 20.3333M12 13H22M20.75 13V20.8667C20.75 21.6134 20.7501 21.9868 20.6139 22.272C20.494 22.5229 20.3026 22.7268 20.0674 22.8547C19.8 23 19.4502 23 18.7501 23H15.2501C14.5501 23 14.1998 23 13.9324 22.8547C13.6972 22.7268 13.5061 22.5229 13.3862 22.272C13.25 21.9868 13.25 21.6134 13.25 20.8667V13H20.75ZM19.5 13H14.5C14.5 12.3787 14.5 12.0681 14.5952 11.8231C14.722 11.4964 14.9652 11.2368 15.2715 11.1015C15.5012 11 15.7926 11 16.375 11H17.625C18.2074 11 18.4986 11 18.7284 11.1015C19.0346 11.2368 19.2779 11.4964 19.4048 11.8231C19.4999 12.0681 19.5 12.3787 19.5 13Z" stroke="#F7F7F7" stroke-width="1.5" stroke-linecap="round" stroke-linejoin="round"/>
</svg>
