<svg width="34" height="34" viewBox="0 0 34 34" fill="none" xmlns="http://www.w3.org/2000/svg">
<path d="M30.75 17C30.75 9.40608 24.5939 3.25 17 3.25V5.25C23.4893 5.25 28.75 10.5107 28.75 17H30.75ZM17 3.25C9.40608 3.25 3.25 9.40608 3.25 17H5.25C5.25 10.5107 10.5107 5.25 17 5.25V3.25ZM3.25 17C3.25 24.5939 9.40608 30.75 17 30.75V28.75C10.5107 28.75 5.25 23.4893 5.25 17H3.25ZM17 30.75C24.5939 30.75 30.75 24.5939 30.75 17H28.75C28.75 23.4893 23.4893 28.75 17 28.75V30.75Z" fill="#F7F7F7"/>
<path d="M20.3875 17.184C20.0946 16.8911 19.6197 16.8911 19.3268 17.184C19.0339 17.4768 19.0339 17.9517 19.3268 18.2446L20.3875 17.184ZM22 19.8571L22.5303 20.3875C22.8232 20.0946 22.8232 19.6197 22.5303 19.3268L22 19.8571ZM19.3268 21.4697C19.0339 21.7626 19.0339 22.2374 19.3268 22.5303C19.6197 22.8232 20.0946 22.8232 20.3875 22.5303L19.3268 21.4697ZM12 19.1071C11.5858 19.1071 11.25 19.4429 11.25 19.8571C11.25 20.2714 11.5858 20.6071 12 20.6071V19.1071ZM13.6125 16.816C13.9054 17.1089 14.3803 17.1089 14.6732 16.816C14.9661 16.5232 14.9661 16.0483 14.6732 15.7554L13.6125 16.816ZM12 14.1429L11.4697 13.6125C11.1768 13.9054 11.1768 14.3803 11.4697 14.6732L12 14.1429ZM14.6732 12.5303C14.9661 12.2374 14.9661 11.7626 14.6732 11.4697C14.3803 11.1768 13.9054 11.1768 13.6125 11.4697L14.6732 12.5303ZM22 14.8929C22.4142 14.8929 22.75 14.5571 22.75 14.1429C22.75 13.7286 22.4142 13.3929 22 13.3929V14.8929ZM19.3268 18.2446L21.4697 20.3875L22.5303 19.3268L20.3875 17.184L19.3268 18.2446ZM21.4697 19.3268L19.3268 21.4697L20.3875 22.5303L22.5303 20.3875L21.4697 19.3268ZM12 20.6071H22V19.1071H12V20.6071ZM14.6732 15.7554L12.5303 13.6125L11.4697 14.6732L13.6125 16.816L14.6732 15.7554ZM12.5303 14.6732L14.6732 12.5303L13.6125 11.4697L11.4697 13.6125L12.5303 14.6732ZM22 13.3929H12V14.8929H22V13.3929Z" fill="#F7F7F7"/>
</svg>
