<svg width="34" height="34" viewBox="0 0 34 34" fill="none" xmlns="http://www.w3.org/2000/svg">
<path d="M31 17C31 9.26801 24.732 3 17 3V5C23.6274 5 29 10.3726 29 17H31ZM17 3C9.26801 3 3 9.26801 3 17H5C5 10.3726 10.3726 5 17 5V3ZM3 17C3 24.732 9.26801 31 17 31V29C10.3726 29 5 23.6274 5 17H3ZM17 31C24.732 31 31 24.732 31 17H29C29 23.6274 23.6274 29 17 29V31Z" fill="#F7F7F7"/>
<path d="M13.6667 17.7143L11 14.8571M11 14.8571L13.6667 12M11 14.8571H19.6667C21.5076 14.8571 23 16.4561 23 18.4286C23 20.401 21.5076 22 19.6667 22H16.3333" stroke="#F7F7F7" stroke-width="2" stroke-linecap="round" stroke-linejoin="round"/>
</svg>
