<svg width="34" height="34" viewBox="0 0 34 34" fill="none" xmlns="http://www.w3.org/2000/svg">
<path d="M13.75 15.5833C13.75 15.031 13.3023 14.5833 12.75 14.5833C12.1977 14.5833 11.75 15.031 11.75 15.5833H13.75ZM12.75 21.25H11.75C11.75 21.8023 12.1977 22.25 12.75 22.25V21.25ZM18.4167 22.25C18.969 22.25 19.4167 21.8023 19.4167 21.25C19.4167 20.6977 18.969 20.25 18.4167 20.25V22.25ZM21.9571 13.4571C22.3476 13.0666 22.3476 12.4334 21.9571 12.0429C21.5666 11.6524 20.9334 11.6524 20.5429 12.0429L21.9571 13.4571ZM3.25 17C3.25 24.5939 9.40608 30.75 17 30.75V28.75C10.5107 28.75 5.25 23.4893 5.25 17H3.25ZM17 30.75C24.5939 30.75 30.75 24.5939 30.75 17H28.75C28.75 23.4893 23.4893 28.75 17 28.75V30.75ZM30.75 17C30.75 9.40608 24.5939 3.25 17 3.25V5.25C23.4893 5.25 28.75 10.5107 28.75 17H30.75ZM17 3.25C9.40608 3.25 3.25 9.40608 3.25 17H5.25C5.25 10.5107 10.5107 5.25 17 5.25V3.25ZM11.75 15.5833V21.25H13.75V15.5833H11.75ZM12.75 22.25H18.4167V20.25H12.75V22.25ZM20.5429 12.0429L12.0429 20.5429L13.4571 21.9571L21.9571 13.4571L20.5429 12.0429Z" fill="#F7F7F7"/>
</svg>
