<svg width="34" height="34" viewBox="0 0 34 34" fill="none" xmlns="http://www.w3.org/2000/svg">
<path d="M31 17C31 9.26801 24.732 3 17 3V5C23.6274 5 29 10.3726 29 17H31ZM17 3C9.26801 3 3 9.26801 3 17H5C5 10.3726 10.3726 5 17 5V3ZM3 17C3 24.732 9.26801 31 17 31V29C10.3726 29 5 23.6274 5 17H3ZM17 31C24.732 31 31 24.732 31 17H29C29 23.6274 23.6274 29 17 29V31Z" fill="#F7F7F7"/>
<path d="M15 18L19 20M19 14L15 16M21 23C19.8954 23 19 22.1046 19 21C19 19.8954 19.8954 19 21 19C22.1046 19 23 19.8954 23 21C23 22.1046 22.1046 23 21 23ZM13 19C11.8954 19 11 18.1046 11 17C11 15.8954 11.8954 15 13 15C14.1046 15 15 15.8954 15 17C15 18.1046 14.1046 19 13 19ZM21 15C19.8954 15 19 14.1046 19 13C19 11.8954 19.8954 11 21 11C22.1046 11 23 11.8954 23 13C23 14.1046 22.1046 15 21 15Z" stroke="#F7F7F7" stroke-width="1.5" stroke-linecap="round" stroke-linejoin="round"/>
</svg>
