<svg width="34" height="34" viewBox="0 0 34 34" fill="none" xmlns="http://www.w3.org/2000/svg">
<path d="M20.25 18.4167C20.25 18.969 20.6977 19.4167 21.25 19.4167C21.8023 19.4167 22.25 18.969 22.25 18.4167H20.25ZM21.25 12.75H22.25C22.25 12.1977 21.8023 11.75 21.25 11.75V12.75ZM15.5833 11.75C15.031 11.75 14.5833 12.1977 14.5833 12.75C14.5833 13.3023 15.031 13.75 15.5833 13.75V11.75ZM12.0429 20.5429C11.6524 20.9334 11.6524 21.5666 12.0429 21.9571C12.4334 22.3476 13.0666 22.3476 13.4571 21.9571L12.0429 20.5429ZM30.75 17C30.75 9.40608 24.5939 3.25 17 3.25V5.25C23.4893 5.25 28.75 10.5107 28.75 17H30.75ZM17 3.25C9.40608 3.25 3.25 9.40608 3.25 17H5.25C5.25 10.5107 10.5107 5.25 17 5.25V3.25ZM3.25 17C3.25 24.5939 9.40608 30.75 17 30.75V28.75C10.5107 28.75 5.25 23.4893 5.25 17H3.25ZM17 30.75C24.5939 30.75 30.75 24.5939 30.75 17H28.75C28.75 23.4893 23.4893 28.75 17 28.75V30.75ZM22.25 18.4167V12.75H20.25V18.4167H22.25ZM21.25 11.75H15.5833V13.75H21.25V11.75ZM13.4571 21.9571L21.9571 13.4571L20.5429 12.0429L12.0429 20.5429L13.4571 21.9571Z" fill="#F7F7F7"/>
</svg>
