<svg width="34" height="34" viewBox="0 0 34 34" fill="none" xmlns="http://www.w3.org/2000/svg">
<path d="M31 17C31 9.26801 24.732 3 17 3V5C23.6274 5 29 10.3726 29 17H31ZM17 3C9.26801 3 3 9.26801 3 17H5C5 10.3726 10.3726 5 17 5V3ZM3 17C3 24.732 9.26801 31 17 31V29C10.3726 29 5 23.6274 5 17H3ZM17 31C24.732 31 31 24.732 31 17H29C29 23.6274 23.6274 29 17 29V31Z" fill="#F7F7F7"/>
<path d="M15.6516 19.6667H12.2811V23M18.348 14.3333H21.7185V11M12 15.0021C12.378 14.0769 13.0108 13.2752 13.8265 12.688C14.6422 12.1008 15.6085 11.7517 16.6148 11.6803C17.6212 11.609 18.6275 11.8183 19.5196 12.2844C20.4117 12.7505 21.1532 13.4549 21.6607 14.3172M22 18.9979C21.622 19.923 20.9892 20.7248 20.1735 21.312C19.3578 21.8992 18.3919 22.2483 17.3856 22.3197C16.3792 22.391 15.3726 22.1817 14.4805 21.7156C13.5884 21.2494 12.8465 20.5452 12.339 19.6828" stroke="#F7F7F7" stroke-width="2" stroke-linecap="round" stroke-linejoin="round"/>
</svg>
