<svg width="34" height="34" viewBox="0 0 34 34" fill="none" xmlns="http://www.w3.org/2000/svg">
<path d="M31 17C31 9.26801 24.732 3 17 3V5C23.6274 5 29 10.3726 29 17H31ZM17 3C9.26801 3 3 9.26801 3 17H5C5 10.3726 10.3726 5 17 5V3ZM3 17C3 24.732 9.26801 31 17 31V29C10.3726 29 5 23.6274 5 17H3ZM17 31C24.732 31 31 24.732 31 17H29C29 23.6274 23.6274 29 17 29V31Z" fill="#F7F7F7"/>
<path d="M14.2517 11.4394C13.9421 11.7146 13.9143 12.1887 14.1894 12.4983C14.4646 12.8079 14.9387 12.8357 15.2483 12.5606L14.2517 11.4394ZM17 10L17.4983 9.43944C17.2141 9.18685 16.7859 9.18685 16.5017 9.43944L17 10ZM18.7517 12.5606C19.0613 12.8357 19.5354 12.8079 19.8106 12.4983C20.0857 12.1887 20.0579 11.7146 19.7483 11.4394L18.7517 12.5606ZM16.25 16.6667C16.25 17.0809 16.5858 17.4167 17 17.4167C17.4142 17.4167 17.75 17.0809 17.75 16.6667H16.25ZM13.2502 15.4167C13.6644 15.4167 14.0002 15.0809 14.0002 14.6667C14.0002 14.2525 13.6644 13.9167 13.2502 13.9167V15.4167ZM11.8188 21.8547L12.1283 21.1715L11.8188 21.8547ZM11.1635 21.272L10.5128 21.645H10.5128L11.1635 21.272ZM22.8367 21.272L22.186 20.899L22.8367 21.272ZM22.1808 21.8547L21.8714 21.1715L22.1808 21.8547ZM20.75 13.9167C20.3358 13.9167 20 14.2525 20 14.6667C20 15.0809 20.3358 15.4167 20.75 15.4167V13.9167ZM22.074 14.7682L22.3332 14.0644L22.074 14.7682ZM22.8857 15.4897L23.5656 15.173L22.8857 15.4897ZM15.2483 12.5606L17.4983 10.5606L16.5017 9.43944L14.2517 11.4394L15.2483 12.5606ZM16.5017 10.5606L18.7517 12.5606L19.7483 11.4394L17.4983 9.43944L16.5017 10.5606ZM17.75 16.6667V10H16.25V16.6667H17.75ZM22.25 16.6667V19.8667H23.75V16.6667H22.25ZM20.6001 21.25H13.4001V22.75H20.6001V21.25ZM11.75 19.8667V16.6667H10.25V19.8667H11.75ZM11.75 16.6667C11.75 16.3445 11.7505 16.1451 11.7621 15.9945C11.773 15.8526 11.7905 15.8141 11.794 15.8065L10.4344 15.173C10.3237 15.4104 10.2841 15.6497 10.2665 15.8797C10.2495 16.101 10.25 16.3676 10.25 16.6667H11.75ZM13.2502 13.9167C12.9098 13.9167 12.6212 13.9163 12.384 13.9307C12.1416 13.9454 11.903 13.9775 11.667 14.0644L12.1853 15.472C12.225 15.4573 12.2989 15.4387 12.4748 15.428C12.656 15.417 12.8916 15.4167 13.2502 15.4167V13.9167ZM11.794 15.8065C11.8549 15.6759 11.9857 15.5455 12.1853 15.472L11.667 14.0644C11.1316 14.2615 10.678 14.6502 10.4344 15.173L11.794 15.8065ZM13.4001 21.25C12.9691 21.25 12.6858 21.2495 12.4691 21.2338C12.2588 21.2185 12.1735 21.1919 12.1283 21.1715L11.5094 22.5379C11.7851 22.6627 12.0703 22.7088 12.3605 22.7299C12.6442 22.7505 12.9911 22.75 13.4001 22.75V21.25ZM10.25 19.8667C10.25 20.2261 10.2493 20.5464 10.2736 20.8111C10.299 21.0874 10.3562 21.3717 10.5128 21.645L11.8142 20.899C11.8073 20.8871 11.7828 20.8421 11.7673 20.6738C11.7507 20.4937 11.75 20.2539 11.75 19.8667H10.25ZM12.1283 21.1715C11.9788 21.1038 11.874 21.0034 11.8142 20.899L10.5128 21.645C10.7406 22.0424 11.0944 22.3499 11.5094 22.5379L12.1283 21.1715ZM22.25 19.8667C22.25 20.254 22.2493 20.4938 22.2328 20.6739C22.2173 20.8423 22.1928 20.8872 22.186 20.899L23.4874 21.645C23.644 21.3716 23.7012 21.0872 23.7265 20.8109C23.7508 20.5464 23.75 20.226 23.75 19.8667H22.25ZM20.6001 22.75C21.0092 22.75 21.356 22.7505 21.6396 22.7299C21.9296 22.7088 22.2147 22.6627 22.4903 22.5379L21.8714 21.1715C21.8261 21.192 21.7409 21.2185 21.5308 21.2338C21.3143 21.2495 21.0312 21.25 20.6001 21.25V22.75ZM22.186 20.899C22.1265 21.0029 22.0214 21.1035 21.8714 21.1715L22.4903 22.5379C22.9048 22.3501 23.2593 22.0429 23.4874 21.645L22.186 20.899ZM20.75 15.4167C21.1086 15.4167 21.3441 15.417 21.5253 15.428C21.7013 15.4387 21.7752 15.4573 21.8149 15.472L22.3332 14.0644C22.0972 13.9775 21.8585 13.9454 21.6161 13.9307C21.379 13.9163 21.0903 13.9167 20.75 13.9167V15.4167ZM23.75 16.6667C23.75 16.3675 23.7505 16.101 23.7335 15.8796C23.7158 15.6496 23.6762 15.4103 23.5656 15.173L22.2059 15.8065C22.2095 15.8142 22.227 15.8527 22.2379 15.9946C22.2495 16.1452 22.25 16.3446 22.25 16.6667H23.75ZM21.8149 15.472C22.0143 15.5454 22.145 15.6757 22.2059 15.8065L23.5656 15.173C23.322 14.6504 22.8689 14.2616 22.3332 14.0644L21.8149 15.472Z" fill="#F7F7F7"/>
</svg>
