<svg width="18" height="18" viewBox="0 0 18 18" fill="none" xmlns="http://www.w3.org/2000/svg">
<path d="M6.75 7.125C6.75 8.36764 7.75736 9.375 9 9.375C10.2426 9.375 11.25 8.36764 11.25 7.125M15.75 5.39996V12.6C15.75 13.44 15.7502 13.8602 15.5867 14.181C15.4429 14.4633 15.2131 14.6927 14.9308 14.8365C14.61 15 14.1902 15 13.3501 15H4.65015C3.81007 15 3.38972 15 3.06885 14.8365C2.7866 14.6927 2.5573 14.4633 2.41349 14.181C2.25 13.8602 2.25 13.44 2.25 12.6V5.39996C2.25 4.55988 2.25 4.1399 2.41349 3.81903C2.5573 3.53679 2.7866 3.3073 3.06885 3.16349C3.38972 3 3.81007 3 4.65015 3H13.3501C14.1902 3 14.61 3 14.9308 3.16349C15.2131 3.3073 15.4429 3.53679 15.5867 3.81903C15.7502 4.1399 15.75 4.55988 15.75 5.39996Z" stroke="white" stroke-width="2" stroke-linecap="round" stroke-linejoin="round"/>
</svg>
