<svg width="16" height="16" viewBox="0 0 16 16" fill="none" xmlns="http://www.w3.org/2000/svg">
<path d="M10 10H11.8667C12.6134 10 12.9866 9.99998 13.2719 9.85466C13.5227 9.72682 13.727 9.5229 13.8548 9.27202C14.0001 8.9868 14.0001 8.61344 14.0001 7.8667V4.13335C14.0001 3.38662 14.0001 3.01324 13.8548 2.72803C13.727 2.47714 13.5227 2.27316 13.2719 2.14532C12.9866 2 12.6135 2 11.8668 2H8.13346C7.38673 2 7.01308 2 6.72786 2.14532C6.47698 2.27316 6.27316 2.47714 6.14532 2.72803C6 3.01324 6 3.38665 6 4.13338V6.00005M2 11.8667V8.13338C2 7.38665 2 7.01324 2.14532 6.72803C2.27316 6.47714 2.47698 6.27316 2.72786 6.14532C3.01308 6 3.38673 6 4.13346 6H7.8668C8.61353 6 8.98664 6 9.27186 6.14532C9.52274 6.27316 9.72699 6.47714 9.85482 6.72803C10.0001 7.01324 10.0001 7.38661 10.0001 8.13335V11.8667C10.0001 12.6134 10.0001 12.9868 9.85482 13.272C9.72699 13.5229 9.52274 13.7268 9.27186 13.8547C8.98664 14 8.61353 14 7.8668 14H4.13346C3.38673 14 3.01308 14 2.72786 13.8547C2.47698 13.7268 2.27316 13.5229 2.14532 13.272C2 12.9868 2 12.6135 2 11.8667Z" stroke="#F7F7F7" stroke-width="1.5" stroke-linecap="round" stroke-linejoin="round"/>
</svg>
