<svg width="10" height="10" viewBox="0 0 10 10" fill="none" xmlns="http://www.w3.org/2000/svg">
<g clip-path="url(#clip0_847_4731)">
<path d="M4.47623 2.1218C4.64556 2.09676 4.82025 2.08333 5.00017 2.08333C7.12726 2.08333 8.52304 3.96035 8.99196 4.70284C9.04871 4.79271 9.07709 4.83764 9.09297 4.90695C9.1049 4.959 9.10489 5.04111 9.09295 5.09316C9.07706 5.16246 9.04848 5.20769 8.99133 5.29815C8.86639 5.4959 8.67591 5.77379 8.42354 6.07519M2.8018 2.79793C1.90094 3.40904 1.28935 4.25807 1.00879 4.7022C0.951785 4.79245 0.923281 4.83757 0.907391 4.90687C0.895457 4.95891 0.895452 5.04102 0.90738 5.09307C0.923262 5.16237 0.951638 5.2073 1.00839 5.29716C1.47731 6.03965 2.87309 7.91667 5.00017 7.91667C5.85784 7.91667 6.59662 7.6115 7.20367 7.19858M1.25017 1.25L8.75017 8.75M4.11629 4.11612C3.89008 4.34232 3.75017 4.65482 3.75017 5C3.75017 5.69036 4.30982 6.25 5.00017 6.25C5.34535 6.25 5.65785 6.11009 5.88406 5.88388" stroke="white" stroke-linecap="round" stroke-linejoin="round"/>
</g>
<defs>
<clipPath id="clip0_847_4731">
<rect width="10" height="10" fill="white"/>
</clipPath>
</defs>
</svg>
