<svg width="24" height="24" viewBox="0 0 24 24" fill="none" xmlns="http://www.w3.org/2000/svg">
<path d="M13.9463 3.99997H9.34183C9.19825 3.99997 9.12646 3.99997 9.06307 4.02183C9.00702 4.04116 8.95597 4.07272 8.91362 4.1142C8.86572 4.16112 8.83361 4.22533 8.7694 4.35375L5.4094 11.0738C5.25605 11.3804 5.17938 11.5338 5.1978 11.6584C5.21388 11.7673 5.27409 11.8647 5.36425 11.9278C5.4675 12 5.63894 12 5.98183 12H10.9463L8.54629 20L18.3008 9.88422C18.6299 9.54293 18.7944 9.37229 18.804 9.22628C18.8124 9.09953 18.76 8.97636 18.663 8.89439C18.5512 8.79997 18.3142 8.79997 17.8401 8.79997H12.1463L13.9463 3.99997Z" stroke="#8E9498" stroke-width="1.5" stroke-linecap="round" stroke-linejoin="round"/>
</svg>
