<svg width="116" height="13" viewBox="0 0 116 13" fill="none" xmlns="http://www.w3.org/2000/svg">
<path d="M3.32 3.64C3.13333 3.64 2.94333 3.65667 2.75 3.69C2.56333 3.72333 2.39333 3.78333 2.24 3.87C2.08667 3.95 1.96 4.06333 1.86 4.21C1.76667 4.35 1.72 4.53 1.72 4.75C1.72 5.01667 1.79 5.23333 1.93 5.4C2.07 5.56 2.24 5.68333 2.44 5.77C2.6 5.83667 2.77 5.89333 2.95 5.94C3.13 5.98667 3.31333 6.03 3.5 6.07C3.69333 6.11 3.88 6.15 4.06 6.19C4.24667 6.23 4.42667 6.28 4.6 6.34C5.00667 6.48 5.33 6.68 5.57 6.94C5.81667 7.2 5.94 7.54333 5.94 7.97C5.94 8.37 5.87 8.7 5.73 8.96C5.59667 9.22 5.41333 9.43333 5.18 9.6C4.95333 9.76667 4.68667 9.89 4.38 9.97C4.08 10.0433 3.76 10.08 3.42 10.08C3.08 10.08 2.75333 10.0467 2.44 9.98C2.13333 9.91333 1.85333 9.80333 1.6 9.65C1.34667 9.49667 1.13 9.29667 0.95 9.05C0.77 8.80333 0.643333 8.50333 0.57 8.15H1.48C1.54667 8.37667 1.65 8.56333 1.79 8.71C1.93 8.85667 2.09 8.97333 2.27 9.06C2.45 9.14667 2.64333 9.20667 2.85 9.24C3.06333 9.27333 3.27333 9.29 3.48 9.29C3.68 9.29 3.87333 9.27 4.06 9.23C4.25333 9.18333 4.42333 9.11333 4.57 9.02C4.71667 8.92667 4.83333 8.80667 4.92 8.66C5.00667 8.51333 5.05 8.33667 5.05 8.13C5.05 7.81667 4.96667 7.58333 4.8 7.43C4.63333 7.27667 4.41 7.16 4.13 7.08C3.94333 7.02 3.74667 6.97 3.54 6.93C3.33333 6.89 3.12667 6.84667 2.92 6.8C2.71333 6.75333 2.51 6.7 2.31 6.64C2.11 6.57333 1.92667 6.49667 1.76 6.41C1.49333 6.28333 1.27 6.09 1.09 5.83C0.91 5.56333 0.82 5.23 0.82 4.83C0.82 4.45667 0.893333 4.14333 1.04 3.89C1.18667 3.63667 1.37667 3.43333 1.61 3.28C1.84333 3.12667 2.10333 3.01667 2.39 2.95C2.68333 2.88333 2.99333 2.85 3.32 2.85C3.58667 2.85667 3.82667 2.88 4.04 2.92C4.26 2.95333 4.46667 3.01667 4.66 3.11C4.96 3.24333 5.21 3.44333 5.41 3.71C5.61 3.97667 5.72 4.32 5.74 4.74H4.89C4.86333 4.53333 4.8 4.36 4.7 4.22C4.60667 4.08 4.49 3.96667 4.35 3.88C4.21 3.79333 4.05 3.73333 3.87 3.7C3.69667 3.66 3.51333 3.64 3.32 3.64ZM7.85344 7.68C7.87344 7.91333 7.9201 8.13 7.99344 8.33C8.07344 8.52333 8.1801 8.69333 8.31344 8.84C8.44677 8.98667 8.6101 9.10333 8.80344 9.19C9.00344 9.27 9.23344 9.31 9.49344 9.31C9.6201 9.31 9.7501 9.3 9.88344 9.28C10.0234 9.25333 10.1534 9.21333 10.2734 9.16C10.3934 9.1 10.5001 9.02333 10.5934 8.93C10.6868 8.83667 10.7568 8.72333 10.8034 8.59H11.6734C11.6134 8.84333 11.5101 9.06333 11.3634 9.25C11.2234 9.43667 11.0534 9.59 10.8534 9.71C10.6601 9.83 10.4434 9.92 10.2034 9.98C9.96344 10.0333 9.7201 10.06 9.47344 10.06C9.05344 10.06 8.68677 9.99333 8.37344 9.86C8.06677 9.72667 7.8101 9.54333 7.60344 9.31C7.39677 9.07 7.24344 8.78667 7.14344 8.46C7.04344 8.12667 6.99344 7.76333 6.99344 7.37C6.99344 6.97667 7.04677 6.61667 7.15344 6.29C7.26677 5.95667 7.42677 5.67 7.63344 5.43C7.8401 5.19 8.09344 5.00333 8.39344 4.87C8.69344 4.73667 9.0501 4.67 9.46344 4.67C9.88344 4.67 10.2468 4.75333 10.5534 4.92C10.8601 5.08667 11.1068 5.30667 11.2934 5.58C11.4801 5.84667 11.6101 6.13667 11.6834 6.45C11.7634 6.76333 11.7968 7.05333 11.7834 7.32C11.7834 7.38 11.7801 7.44 11.7734 7.5C11.7734 7.56 11.7701 7.62 11.7634 7.68H7.85344ZM10.9234 6.94C10.9101 6.49333 10.7701 6.13 10.5034 5.85C10.2368 5.57 9.8801 5.43 9.43344 5.43C9.18677 5.43 8.9701 5.47 8.78344 5.55C8.59677 5.63 8.4401 5.74 8.31344 5.88C8.18677 6.02 8.08677 6.18333 8.01344 6.37C7.9401 6.55 7.89344 6.74 7.87344 6.94H10.9234ZM15.2735 10.06C14.8535 10.06 14.4902 9.99333 14.1835 9.86C13.8768 9.72667 13.6235 9.54 13.4235 9.3C13.2235 9.06 13.0735 8.77667 12.9735 8.45C12.8735 8.12333 12.8235 7.76667 12.8235 7.38C12.8235 7.00667 12.8768 6.65667 12.9835 6.33C13.0902 5.99667 13.2468 5.71 13.4535 5.47C13.6602 5.22333 13.9202 5.03 14.2335 4.89C14.5468 4.74333 14.9268 4.67 15.3735 4.67C15.6402 4.67 15.8768 4.7 16.0835 4.76C16.2902 4.81333 16.4835 4.90333 16.6635 5.03C16.8502 5.15 17.0102 5.31 17.1435 5.51C17.2768 5.71 17.3735 5.95333 17.4335 6.24H16.5635C16.4635 5.94667 16.3035 5.73667 16.0835 5.61C15.8702 5.48333 15.6168 5.42333 15.3235 5.43C15.0368 5.43 14.7835 5.48667 14.5635 5.6C14.3502 5.70667 14.1768 5.85 14.0435 6.03C13.9168 6.21 13.8235 6.42 13.7635 6.66C13.7035 6.89333 13.6735 7.13333 13.6735 7.38C13.6735 7.64 13.7035 7.88667 13.7635 8.12C13.8302 8.35333 13.9268 8.56 14.0535 8.74C14.1868 8.91333 14.3568 9.05333 14.5635 9.16C14.7702 9.26 15.0168 9.31 15.3035 9.31C15.4435 9.31 15.5802 9.29667 15.7135 9.27C15.8535 9.24333 15.9802 9.2 16.0935 9.14C16.2135 9.07333 16.3168 8.98667 16.4035 8.88C16.4902 8.77333 16.5535 8.64333 16.5935 8.49H17.4735C17.4202 8.76333 17.3235 9 17.1835 9.2C17.0502 9.39333 16.8835 9.55667 16.6835 9.69C16.4835 9.81667 16.2635 9.91 16.0235 9.97C15.7835 10.03 15.5335 10.06 15.2735 10.06ZM20.7509 9.31C21.2309 9.31 21.5809 9.16667 21.8009 8.88C22.0275 8.58667 22.1409 8.18 22.1409 7.66V4.73H22.9909V7.7C22.9909 8.5 22.7975 9.09333 22.4109 9.48C22.0309 9.86667 21.4775 10.06 20.7509 10.06C20.0242 10.06 19.4709 9.86667 19.0909 9.48C18.7175 9.09333 18.5309 8.5 18.5309 7.7V4.73H19.3809V7.66C19.3809 8.18 19.4942 8.58667 19.7209 8.88C19.9475 9.16667 20.2909 9.31 20.7509 9.31ZM24.3126 10V4.73H25.1326L25.1726 5.55C25.3659 5.24333 25.6126 5.02 25.9126 4.88C26.2126 4.74 26.5526 4.67 26.9326 4.67H27.2026V5.47H26.8926C26.5792 5.47 26.3126 5.52333 26.0926 5.63C25.8726 5.73 25.6926 5.87 25.5526 6.05C25.4192 6.22333 25.3192 6.43 25.2526 6.67C25.1926 6.91 25.1626 7.16333 25.1626 7.43V10H24.3126ZM28.6054 7.68C28.6254 7.91333 28.6721 8.13 28.7454 8.33C28.8254 8.52333 28.9321 8.69333 29.0654 8.84C29.1987 8.98667 29.3621 9.10333 29.5554 9.19C29.7554 9.27 29.9854 9.31 30.2454 9.31C30.3721 9.31 30.5021 9.3 30.6354 9.28C30.7754 9.25333 30.9054 9.21333 31.0254 9.16C31.1454 9.1 31.2521 9.02333 31.3454 8.93C31.4387 8.83667 31.5087 8.72333 31.5554 8.59H32.4254C32.3654 8.84333 32.2621 9.06333 32.1154 9.25C31.9754 9.43667 31.8054 9.59 31.6054 9.71C31.4121 9.83 31.1954 9.92 30.9554 9.98C30.7154 10.0333 30.4721 10.06 30.2254 10.06C29.8054 10.06 29.4387 9.99333 29.1254 9.86C28.8187 9.72667 28.5621 9.54333 28.3554 9.31C28.1487 9.07 27.9954 8.78667 27.8954 8.46C27.7954 8.12667 27.7454 7.76333 27.7454 7.37C27.7454 6.97667 27.7987 6.61667 27.9054 6.29C28.0187 5.95667 28.1787 5.67 28.3854 5.43C28.5921 5.19 28.8454 5.00333 29.1454 4.87C29.4454 4.73667 29.8021 4.67 30.2154 4.67C30.6354 4.67 30.9987 4.75333 31.3054 4.92C31.6121 5.08667 31.8587 5.30667 32.0454 5.58C32.2321 5.84667 32.3621 6.13667 32.4354 6.45C32.5154 6.76333 32.5487 7.05333 32.5354 7.32C32.5354 7.38 32.5321 7.44 32.5254 7.5C32.5254 7.56 32.5221 7.62 32.5154 7.68H28.6054ZM31.6754 6.94C31.6621 6.49333 31.5221 6.13 31.2554 5.85C30.9887 5.57 30.6321 5.43 30.1854 5.43C29.9387 5.43 29.7221 5.47 29.5354 5.55C29.3487 5.63 29.1921 5.74 29.0654 5.88C28.9387 6.02 28.8387 6.18333 28.7654 6.37C28.6921 6.55 28.6454 6.74 28.6254 6.94H31.6754ZM38.3778 10H37.5678L37.5278 9.21C37.3478 9.51 37.0978 9.72667 36.7778 9.86C36.4645 9.99333 36.1345 10.06 35.7878 10.06C35.3878 10.0533 35.0411 9.98333 34.7478 9.85C34.4545 9.71 34.2145 9.52 34.0278 9.28C33.8411 9.04 33.7011 8.76 33.6078 8.44C33.5211 8.11333 33.4778 7.76 33.4778 7.38C33.4778 7 33.5245 6.64667 33.6178 6.32C33.7111 5.98667 33.8545 5.7 34.0478 5.46C34.2411 5.21333 34.4845 5.02 34.7778 4.88C35.0711 4.74 35.4211 4.67 35.8278 4.67C36.1345 4.67 36.4445 4.72667 36.7578 4.84C37.0711 4.95333 37.3278 5.13667 37.5278 5.39V2.93H38.3778V10ZM35.8978 5.43C35.6111 5.43 35.3678 5.48333 35.1678 5.59C34.9678 5.69 34.8045 5.82667 34.6778 6C34.5578 6.17333 34.4678 6.38 34.4078 6.62C34.3545 6.85333 34.3278 7.11 34.3278 7.39C34.3278 7.67 34.3545 7.92333 34.4078 8.15C34.4611 8.37 34.5511 8.56667 34.6778 8.74C34.8045 8.91333 34.9678 9.05333 35.1678 9.16C35.3678 9.26 35.6145 9.31 35.9078 9.31C36.2478 9.31 36.5278 9.23 36.7478 9.07C36.9678 8.91 37.1445 8.71 37.2778 8.47C37.3711 8.30333 37.4378 8.12333 37.4778 7.93C37.5178 7.73 37.5378 7.53333 37.5378 7.34C37.5378 7.1 37.5145 6.88 37.4678 6.68C37.4278 6.48 37.3511 6.29333 37.2378 6.12C37.1045 5.92667 36.9278 5.76333 36.7078 5.63C36.4878 5.49667 36.2178 5.43 35.8978 5.43ZM42.5983 2.93H45.0783C45.4183 2.93 45.7249 2.95 45.9983 2.99C46.2783 3.03 46.5283 3.12333 46.7483 3.27C46.9416 3.39667 47.1049 3.57667 47.2383 3.81C47.3716 4.04333 47.4383 4.34 47.4383 4.7C47.4383 5.06 47.3549 5.38 47.1883 5.66C47.0283 5.94 46.7783 6.14667 46.4383 6.28C46.8916 6.36 47.2316 6.55333 47.4583 6.86C47.6849 7.16 47.7983 7.55 47.7983 8.03C47.7783 8.47 47.6849 8.81333 47.5183 9.06C47.3516 9.30667 47.1383 9.5 46.8783 9.64C46.6183 9.78 46.3249 9.87667 45.9983 9.93C45.6783 9.97667 45.3549 10 45.0283 10H42.5983V2.93ZM43.4683 3.72V6.03H44.8283C45.0149 6.03 45.2083 6.01667 45.4083 5.99C45.6083 5.96333 45.7883 5.90667 45.9483 5.82C46.1349 5.72667 46.2849 5.6 46.3983 5.44C46.5183 5.27333 46.5816 5.04667 46.5883 4.76C46.5883 4.53333 46.5483 4.35333 46.4683 4.22C46.3883 4.08 46.2783 3.97333 46.1383 3.9C45.9983 3.82667 45.8383 3.78 45.6583 3.76C45.4783 3.73333 45.2883 3.72 45.0883 3.72H43.4683ZM44.9983 9.21C45.2116 9.21 45.4249 9.2 45.6383 9.18C45.8583 9.16 46.0649 9.11 46.2583 9.03C46.4583 8.94333 46.6183 8.82 46.7383 8.66C46.8583 8.49333 46.9183 8.27 46.9183 7.99C46.9183 7.75 46.8716 7.55333 46.7783 7.4C46.6916 7.24667 46.5716 7.12667 46.4183 7.04C46.2716 6.95333 46.1016 6.89333 45.9083 6.86C45.7149 6.82667 45.5183 6.81 45.3183 6.81H43.4683V9.21H44.9983ZM53.591 4.73V10C53.591 10.7667 53.391 11.35 52.991 11.75C52.591 12.1567 52.021 12.36 51.281 12.36C50.8343 12.3533 50.431 12.2933 50.071 12.18C49.7177 12.0733 49.391 11.88 49.091 11.6L49.461 10.93C49.721 11.1367 49.9977 11.3 50.291 11.42C50.591 11.54 50.9043 11.6 51.231 11.6C51.5043 11.6 51.7377 11.5567 51.931 11.47C52.1243 11.39 52.281 11.2733 52.401 11.12C52.5277 10.9733 52.6177 10.7967 52.671 10.59C52.731 10.3833 52.761 10.16 52.761 9.92V9.29C52.6743 9.42333 52.5643 9.54333 52.431 9.65C52.3043 9.75 52.1643 9.83333 52.011 9.9C51.8643 9.96 51.7043 10.0033 51.531 10.03C51.3643 10.0633 51.1943 10.08 51.021 10.08C50.621 10.0733 50.2877 10.01 50.021 9.89C49.761 9.77 49.551 9.60333 49.391 9.39C49.2377 9.17667 49.1277 8.92333 49.061 8.63C48.9943 8.33 48.961 8 48.961 7.64V4.73H49.811V7.4C49.811 7.64 49.8243 7.87667 49.851 8.11C49.8843 8.34333 49.9477 8.55 50.041 8.73C50.1343 8.91 50.271 9.05667 50.451 9.17C50.631 9.27667 50.871 9.33 51.171 9.33C51.471 9.33 51.7243 9.26667 51.931 9.14C52.1443 9.01333 52.3077 8.85333 52.421 8.66C52.5477 8.46 52.631 8.24 52.671 8C52.7177 7.76 52.741 7.51333 52.741 7.26V4.73H53.591Z" fill="#AAAAAA"/>
<path d="M78.9725 9.78155C78.4823 9.78155 78.0354 9.66166 77.6321 9.42189C77.2322 9.17869 76.914 8.84644 76.6776 8.42512C76.4446 8.00038 76.3281 7.51741 76.3281 6.9762C76.3281 6.4487 76.4411 5.976 76.6672 5.55811C76.8932 5.1368 77.2044 4.80454 77.6008 4.56134C78.0007 4.31472 78.4579 4.19141 78.9725 4.19141C79.3516 4.19141 79.7045 4.26334 80.0313 4.4072C80.3617 4.54764 80.6312 4.7446 80.8398 4.99807V4.35582H82.441V9.61713H80.8398V8.9235C80.5964 9.20096 80.3165 9.41333 80 9.56062C79.6836 9.70791 79.3411 9.78155 78.9725 9.78155ZM79.4472 8.44053C79.7254 8.44053 79.9722 8.37888 80.1878 8.25556C80.4034 8.12883 80.5721 7.95585 80.6938 7.73663C80.8155 7.51741 80.8763 7.26736 80.8763 6.98648C80.8763 6.70218 80.8137 6.45213 80.6885 6.23633C80.5668 6.01711 80.3982 5.84584 80.1826 5.72253C79.9705 5.59579 79.7254 5.53242 79.4472 5.53242C79.1725 5.53242 78.9273 5.59579 78.7117 5.72253C78.4962 5.84584 78.3258 6.01711 78.2006 6.23633C78.0754 6.45555 78.0128 6.7056 78.0128 6.98648C78.0128 7.26736 78.0737 7.51741 78.1954 7.73663C78.3206 7.95585 78.4909 8.12883 78.7065 8.25556C78.9221 8.37888 79.169 8.44053 79.4472 8.44053Z" fill="white"/>
<path d="M84.3246 9.61713V4.35582H85.9259V5.11111C86.1241 4.81653 86.3657 4.59046 86.6508 4.43289C86.9395 4.2719 87.2489 4.19141 87.5793 4.19141C87.767 4.19141 87.9618 4.21881 88.1634 4.27361C88.3651 4.32842 88.5338 4.39864 88.6694 4.48427L88.0017 5.81501C87.8835 5.73623 87.7444 5.67458 87.5845 5.63005C87.428 5.58209 87.282 5.55811 87.1463 5.55811C86.9377 5.55811 86.7395 5.61121 86.5518 5.71739C86.364 5.82358 86.2127 5.9623 86.098 6.13357C85.9832 6.30141 85.9259 6.48295 85.9259 6.6782V9.61713H84.3246Z" fill="white"/>
<path d="M91.998 9.78155C91.5912 9.78155 91.207 9.70962 90.8453 9.56575C90.4872 9.42189 90.1708 9.22322 89.8961 8.96975C89.6214 8.71285 89.4058 8.41656 89.2493 8.08087C89.0928 7.74176 89.0146 7.37868 89.0146 6.99162C89.0146 6.61825 89.0876 6.26373 89.2336 5.92805C89.3832 5.59237 89.5918 5.29436 89.8595 5.03404C90.1308 4.77371 90.4472 4.56819 90.8088 4.41748C91.1739 4.26676 91.5686 4.19141 91.9928 4.19141C92.3371 4.19141 92.6674 4.23936 92.9838 4.33527C93.3037 4.43118 93.561 4.55449 93.7558 4.70521L93.2081 5.76877C92.9473 5.58038 92.6239 5.48618 92.238 5.48618C91.9076 5.48618 91.6277 5.55811 91.3982 5.70198C91.1687 5.84584 90.9931 6.03252 90.8714 6.26202C90.7532 6.49152 90.6941 6.733 90.6941 6.98648C90.6941 7.26393 90.7584 7.5174 90.8871 7.7469C91.0157 7.97297 91.1965 8.1528 91.4295 8.28639C91.666 8.41998 91.9389 8.48677 92.2484 8.48677C92.4396 8.48677 92.6187 8.46109 92.7856 8.40971C92.9525 8.35833 93.0933 8.28982 93.2081 8.20419L93.7558 9.26775C93.5576 9.41504 93.302 9.53664 92.989 9.63255C92.6761 9.73188 92.3457 9.78155 91.998 9.78155Z" fill="white"/>
<path d="M97.2278 9.78155C96.7376 9.78155 96.2907 9.66166 95.8874 9.42189C95.4875 9.17869 95.1693 8.84644 94.9329 8.42512C94.6999 8.00038 94.5834 7.51741 94.5834 6.9762C94.5834 6.4487 94.6964 5.976 94.9225 5.55811C95.1485 5.1368 95.4597 4.80454 95.8561 4.56134C96.256 4.31472 96.7132 4.19141 97.2278 4.19141C97.6069 4.19141 97.9598 4.26334 98.2867 4.4072C98.617 4.54764 98.8865 4.7446 99.0951 4.99807V4.35582H100.696V9.61713H99.0951V8.9235C98.8517 9.20096 98.5718 9.41333 98.2554 9.56062C97.9389 9.70791 97.5964 9.78155 97.2278 9.78155ZM97.7025 8.44053C97.9807 8.44053 98.2275 8.37888 98.4431 8.25556C98.6587 8.12883 98.8274 7.95585 98.9491 7.73663C99.0708 7.51741 99.1316 7.26736 99.1316 6.98648C99.1316 6.70218 99.069 6.45213 98.9438 6.23633C98.8221 6.01711 98.6535 5.84584 98.4379 5.72253C98.2258 5.59579 97.9807 5.53242 97.7025 5.53242C97.4278 5.53242 97.1826 5.59579 96.9671 5.72253C96.7515 5.84584 96.5811 6.01711 96.4559 6.23633C96.3307 6.45555 96.2681 6.7056 96.2681 6.98648C96.2681 7.26736 96.329 7.51741 96.4507 7.73663C96.5759 7.95585 96.7463 8.12883 96.9618 8.25556C97.1774 8.37888 97.4243 8.44053 97.7025 8.44053Z" fill="white"/>
<path d="M102.58 9.61713V4.35582H104.181V4.94155C104.386 4.71548 104.642 4.53394 104.948 4.39693C105.257 4.25991 105.598 4.19141 105.97 4.19141C106.38 4.19141 106.74 4.28046 107.05 4.45858C107.363 4.63327 107.608 4.87819 107.785 5.19332C107.963 5.50502 108.051 5.86982 108.051 6.28771V9.61713H106.45V6.62168C106.45 6.24489 106.349 5.95203 106.148 5.74308C105.949 5.53071 105.676 5.42453 105.329 5.42453C105.092 5.42453 104.887 5.47248 104.713 5.56839C104.543 5.66087 104.411 5.78932 104.317 5.95374C104.226 6.11473 104.181 6.29799 104.181 6.50351V9.61713H102.58Z" fill="white"/>
<path d="M112.06 9.78155C111.57 9.78155 111.123 9.66166 110.72 9.42189C110.32 9.17869 110.002 8.84644 109.765 8.42512C109.532 8.00038 109.416 7.51741 109.416 6.9762C109.416 6.4487 109.529 5.976 109.755 5.55811C109.981 5.1368 110.292 4.80454 110.689 4.56134C111.088 4.31472 111.546 4.19141 112.06 4.19141C112.439 4.19141 112.792 4.26334 113.119 4.4072C113.449 4.54764 113.719 4.7446 113.928 4.99807V4.35582H115.529V9.61713H113.928V8.9235C113.684 9.20096 113.404 9.41333 113.088 9.56062C112.771 9.70791 112.429 9.78155 112.06 9.78155ZM112.535 8.44053C112.813 8.44053 113.06 8.37888 113.276 8.25556C113.491 8.12883 113.66 7.95585 113.781 7.73663C113.903 7.51741 113.964 7.26736 113.964 6.98648C113.964 6.70218 113.901 6.45213 113.776 6.23633C113.655 6.01711 113.486 5.84584 113.27 5.72253C113.058 5.59579 112.813 5.53242 112.535 5.53242C112.26 5.53242 112.015 5.59579 111.799 5.72253C111.584 5.84584 111.414 6.01711 111.288 6.23633C111.163 6.45555 111.101 6.7056 111.101 6.98648C111.101 7.26736 111.161 7.51741 111.283 7.73663C111.408 7.95585 111.579 8.12883 111.794 8.25556C112.01 8.37888 112.257 8.44053 112.535 8.44053Z" fill="white"/>
<path fill-rule="evenodd" clip-rule="evenodd" d="M64.7231 10.9963C64.2733 11.5528 63.6207 11.9083 62.9085 11.9846C62.1964 12.0609 61.4831 11.8517 60.9254 11.403C60.3859 10.9325 60.0557 10.2673 60.0072 9.55376C59.9587 8.84018 60.196 8.13659 60.6668 7.59765L64.5272 3.00363C64.9769 2.44711 65.6295 2.09166 66.3416 2.01539C67.0537 1.93913 67.7669 2.1483 68.3246 2.59692C68.8641 3.06737 69.1943 3.73245 69.2429 4.44596C69.2914 5.15948 69.0542 5.86304 68.5834 6.40199L64.7231 10.9963ZM61.8907 10.2541C62.1441 10.458 62.4683 10.5531 62.792 10.5185C63.1157 10.4839 63.4123 10.3223 63.6167 10.0693L67.4766 5.47628C67.6906 5.2313 67.7984 4.91153 67.7764 4.58723C67.7543 4.26292 67.6042 3.96062 67.3591 3.74674C67.1056 3.54286 66.7814 3.4478 66.4578 3.48244C66.1342 3.51708 65.8375 3.6786 65.6331 3.9315L61.7729 8.5236C61.6668 8.64493 61.5857 8.78594 61.5342 8.93858C61.4827 9.09123 61.4618 9.25251 61.4727 9.41321C61.4837 9.57392 61.5262 9.73089 61.5979 9.87517C61.6696 10.0195 61.7691 10.1482 61.8907 10.2541Z" fill="#EDEDED"/>
<g filter="url(#filter0_f_1521_3854)">
<path d="M65.3994 8.29235L66.9185 6.48598L67.4547 6.94624L65.9364 8.75248L65.3994 8.29235Z" fill="#B6B6B6"/>
</g>
<g filter="url(#filter1_f_1521_3854)">
<path d="M62.6842 5.82804L64.1636 4.17438L64.7352 4.43843L63.2565 6.09187L62.6842 5.82804Z" fill="#B6B6B6"/>
</g>
<path fill-rule="evenodd" clip-rule="evenodd" d="M68.5007 10.9769C68.7186 11.2578 68.991 11.4919 69.3017 11.6651C69.6123 11.8383 69.9548 11.9471 70.3086 11.985C70.6623 12.0228 71.0201 11.989 71.3604 11.8854C71.7008 11.7819 72.0167 11.6108 72.2892 11.3824C72.5618 11.154 72.7854 10.8729 72.9466 10.5562C73.1078 10.2394 73.2033 9.89338 73.2274 9.53886C73.2515 9.18434 73.2037 8.8286 73.0868 8.49297C72.97 8.15734 72.7865 7.84873 72.5473 7.58563L68.6961 3.00147C68.2474 2.44615 67.5963 2.09146 66.8859 2.01536C66.1756 1.93926 65.464 2.14798 64.9076 2.59564C64.3695 3.06508 64.04 3.72872 63.9916 4.44071C63.9431 5.15269 64.1798 5.85474 64.6494 6.39254L68.5007 10.9769ZM71.3264 10.2364C71.0735 10.4399 70.7501 10.5348 70.4272 10.5002C70.1043 10.4656 69.8083 10.3044 69.6044 10.052L65.7531 5.46881C65.5397 5.22436 65.4321 4.90528 65.4541 4.58167C65.4761 4.25806 65.6258 3.95641 65.8704 3.74299C66.1233 3.53947 66.4467 3.44456 66.7697 3.47914C67.0926 3.51371 67.3886 3.67492 67.5926 3.92735L71.4439 8.50959C71.5497 8.63064 71.6307 8.77134 71.6821 8.92365C71.7335 9.07595 71.7543 9.23688 71.7435 9.39724C71.7326 9.5576 71.6902 9.71424 71.6186 9.85822C71.5471 10.0022 71.4477 10.1307 71.3264 10.2364Z" fill="#EDEDED"/>
<g filter="url(#filter2_f_1521_3854)">
<path d="M68.9808 3.733L70.1664 5.36528L69.518 5.45759L68.3322 3.82576L68.9808 3.733Z" fill="#B6B6B6"/>
</g>
<path d="M67.6666 5.18138L68.6987 6.25897C70.1181 4.27931 68.5063 2.06351 66.8228 2.00586L66.3887 3.49437C67.4102 3.33062 68.0611 4.33457 67.6666 5.18138Z" fill="url(#paint0_linear_1521_3854)"/>
<defs>
<filter id="filter0_f_1521_3854" x="63.0604" y="4.14734" width="6.73315" height="6.94458" filterUnits="userSpaceOnUse" color-interpolation-filters="sRGB">
<feFlood flood-opacity="0" result="BackgroundImageFix"/>
<feBlend mode="normal" in="SourceGraphic" in2="BackgroundImageFix" result="shape"/>
<feGaussianBlur stdDeviation="1.16949" result="effect1_foregroundBlur_1521_3854"/>
</filter>
<filter id="filter1_f_1521_3854" x="60.3451" y="1.83582" width="6.72925" height="6.59497" filterUnits="userSpaceOnUse" color-interpolation-filters="sRGB">
<feFlood flood-opacity="0" result="BackgroundImageFix"/>
<feBlend mode="normal" in="SourceGraphic" in2="BackgroundImageFix" result="shape"/>
<feGaussianBlur stdDeviation="1.16949" result="effect1_foregroundBlur_1521_3854"/>
</filter>
<filter id="filter2_f_1521_3854" x="65.993" y="1.39441" width="6.51245" height="6.40259" filterUnits="userSpaceOnUse" color-interpolation-filters="sRGB">
<feFlood flood-opacity="0" result="BackgroundImageFix"/>
<feBlend mode="normal" in="SourceGraphic" in2="BackgroundImageFix" result="shape"/>
<feGaussianBlur stdDeviation="1.16949" result="effect1_foregroundBlur_1521_3854"/>
</filter>
<linearGradient id="paint0_linear_1521_3854" x1="67.4516" y1="2.78341" x2="68.3598" y2="6.13986" gradientUnits="userSpaceOnUse">
<stop stop-color="#EDEDED"/>
<stop offset="1" stop-color="#ECECEC"/>
</linearGradient>
</defs>
</svg>
