<svg width="17" height="16" viewBox="0 0 17 16" fill="none" xmlns="http://www.w3.org/2000/svg">
<path d="M9.51982 5.56782C9.13821 5.83988 8.67121 5.99992 8.16683 5.99992C6.87817 5.99992 5.8335 4.95525 5.8335 3.66659C5.8335 2.37792 6.87817 1.33325 8.16683 1.33325C9.00215 1.33325 9.73496 1.7722 10.1472 2.43201M4.50016 13.3914H6.24036C6.46725 13.3914 6.69275 13.4184 6.9127 13.4724L8.75142 13.9192C9.15039 14.0164 9.56601 14.0258 9.96915 13.9475L12.0021 13.552C12.5392 13.4474 13.0332 13.1902 13.4204 12.8136L14.8588 11.4144C15.2695 11.0155 15.2695 10.3682 14.8588 9.96863C14.4889 9.60888 13.9033 9.56838 13.4849 9.87346L11.8086 11.0965C11.5685 11.272 11.2764 11.3665 10.9759 11.3665H9.35716L10.3875 11.3664C10.9683 11.3664 11.4387 10.9088 11.4387 10.3439V10.1393C11.4387 9.67025 11.1105 9.26123 10.6429 9.14783L9.05256 8.76108C8.79375 8.69831 8.5287 8.66659 8.26226 8.66659C7.61905 8.66659 6.45476 9.19913 6.45476 9.19913L4.50016 10.0165M13.8335 4.33325C13.8335 5.62192 12.7888 6.66659 11.5002 6.66659C10.2115 6.66659 9.16683 5.62192 9.16683 4.33325C9.16683 3.04459 10.2115 1.99992 11.5002 1.99992C12.7888 1.99992 13.8335 3.04459 13.8335 4.33325ZM1.8335 9.73325L1.8335 13.5999C1.8335 13.9733 1.8335 14.16 1.90616 14.3026C1.97007 14.428 2.07206 14.53 2.1975 14.5939C2.34011 14.6666 2.52679 14.6666 2.90016 14.6666H3.4335C3.80686 14.6666 3.99355 14.6666 4.13616 14.5939C4.2616 14.53 4.36358 14.428 4.4275 14.3026C4.50016 14.16 4.50016 13.9733 4.50016 13.5999V9.73325C4.50016 9.35988 4.50016 9.1732 4.4275 9.03059C4.36358 8.90515 4.2616 8.80316 4.13616 8.73925C3.99355 8.66659 3.80686 8.66659 3.4335 8.66659L2.90016 8.66659C2.52679 8.66659 2.34011 8.66659 2.1975 8.73925C2.07206 8.80316 1.97007 8.90515 1.90616 9.03059C1.8335 9.1732 1.8335 9.35988 1.8335 9.73325Z" stroke="#F7F7F7" stroke-width="1.5" stroke-linecap="round" stroke-linejoin="round"/>
</svg>
